<svg class="main-svg" xmlns="http://www.w3.org/2000/svg" xmlns:xlink="http://www.w3.org/1999/xlink" width="700" height="500" viewBox="0 0 700 500"><rect x="0" y="0" width="700" height="500" style="fill: rgb(255, 255, 255); fill-opacity: 1;"/><defs id="defs-427c00"><g class="clips"/><g class="gradients"><linearGradient x1="0" x2="0" y1="1" y2="0" id="g427c00-cbcoloraxis"><stop offset="0%" stop-color="rgb(103, 0, 31)" stop-opacity="1"/><stop offset="10%" stop-color="rgb(178, 24, 43)" stop-opacity="1"/><stop offset="20%" stop-color="rgb(214, 96, 77)" stop-opacity="1"/><stop offset="30%" stop-color="rgb(244, 165, 130)" stop-opacity="1"/><stop offset="40%" stop-color="rgb(253, 219, 199)" stop-opacity="1"/><stop offset="50%" stop-color="rgb(247, 247, 247)" stop-opacity="1"/><stop offset="60%" stop-color="rgb(209, 229, 240)" stop-opacity="1"/><stop offset="70%" stop-color="rgb(146, 197, 222)" stop-opacity="1"/><stop offset="80%" stop-color="rgb(67, 147, 195)" stop-opacity="1"/><stop offset="90%" stop-color="rgb(33, 102, 172)" stop-opacity="1"/><stop offset="100%" stop-color="rgb(5, 48, 97)" stop-opacity="1"/></linearGradient></g></defs><g class="bglayer"/><g class="layer-below"><g class="imagelayer"/><g class="shapelayer"/></g><g class="cartesianlayer"/><g class="polarlayer"/><g class="ternarylayer"/><g class="geolayer"/><g class="funnelarealayer"/><g class="pielayer"/><g class="treemaplayer"/><g class="sunburstlayer"><g class="trace sunburst" stroke-linejoin="round" style="opacity: 1;"><g class="slice"><path class="surface" d="M342.5,240A0,0 0,1,0 342.5,240A0,0 0,1,0 342.5,240ZM402.5,240A60,60 0,1,1 282.5,240A60,60 0,1,1 402.5,240.00000000000003Z" style="pointer-events: all; stroke-width: 1; fill: rgb(5, 48, 97); fill-opacity: 1; stroke: rgb(255, 255, 255); stroke-opacity: 1;"/><g class="slicetext"><text data-notex="1" class="slicetext" text-anchor="middle" x="0" y="0" style="font-family: 'Open Sans', verdana, arial, sans-serif; font-size: 12px; fill: rgb(255, 255, 255); fill-opacity: 1; white-space: pre;" transform="translate(342.4921875,244.75)">Greater_Adelaide</text></g></g><g class="slice cursor-pointer"><path class="surface" d="M402.5,240L462.5,240A120,120 0,1,0 233.95141235746289,291.15861726835897L288.22570617873146,265.5793086341795A60,60 0,1,1 402.5,240Z" style="pointer-events: all; stroke-width: 1; fill: rgb(226, 237, 243); fill-opacity: 1; stroke: rgb(255, 255, 255); stroke-opacity: 1;"/><g class="slicetext"><text data-notex="1" class="slicetext" text-anchor="middle" x="0" y="0" style="font-family: 'Open Sans', verdana, arial, sans-serif; font-size: 12px; fill: rgb(68, 68, 68); fill-opacity: 1; white-space: pre;" transform="translate(325.62276652070597,164.63756137948278)rotate(-12.617179215270426)">neutral</text></g></g><g class="slice cursor-pointer"><path class="surface" d="M288.22570617873146,265.5793086341795L233.95141235746289,291.15861726835897A120,120 0,0,0 437.64355563560355,313.12799615068644L390.0717778178018,276.5639980753432A60,60 0,0,1 288.22570617873146,265.5793086341795Z" style="pointer-events: all; stroke-width: 1; fill: rgb(244, 166, 131); fill-opacity: 1; stroke: rgb(255, 255, 255); stroke-opacity: 1;"/><g class="slicetext"><text data-notex="1" class="slicetext" text-anchor="middle" x="0" y="0" style="font-family: 'Open Sans', verdana, arial, sans-serif; font-size: 12px; fill: rgb(68, 68, 68); fill-opacity: 1; white-space: pre;" transform="translate(332.8489504908149,334.2310440449331)">positive</text></g></g><g class="slice cursor-pointer"><path class="surface" d="M390.0717778178018,276.5639980753432L437.64355563560355,313.12799615068644A120,120 0,0,0 462.5,240.00000000000003L402.5,240.00000000000003A60,60 0,0,1 390.0717778178018,276.5639980753432Z" style="pointer-events: all; stroke-width: 1; fill: rgb(157, 17, 40); fill-opacity: 1; stroke: rgb(255, 255, 255); stroke-opacity: 1;"/><g class="slicetext"><text data-notex="1" class="slicetext" text-anchor="middle" x="0" y="0" style="font-family: 'Open Sans', verdana, arial, sans-serif; font-size: 12px; fill: rgb(255, 255, 255); fill-opacity: 1; white-space: pre;" transform="translate(428.45423318257735,273.96612415831305)">negative</text></g></g><g class="slice"><path class="surface" d="M462.5,240L522.5,240A180,180 0,1,0 166.36309482709646,277.09165183854157L225.07539655139766,264.72776789236104A120,120 0,1,1 462.5,240Z" style="pointer-events: all; stroke-width: 1; fill: rgb(241, 244, 246); fill-opacity: 1; stroke: rgb(255, 255, 255); stroke-opacity: 1; opacity: 1;"/><g class="slicetext"><text data-notex="1" class="slicetext" text-anchor="middle" x="0" y="0" style="font-family: 'Open Sans', verdana, arial, sans-serif; font-size: 12px; fill: rgb(68, 68, 68); fill-opacity: 1; white-space: pre;" transform="translate(328.33772083787363,104.02033824351015)rotate(-5.9459172852598385)">objective</text></g></g><g class="slice"><path class="surface" d="M225.07539655139766,264.72776789236104L166.36309482709646,277.09165183854157A180,180 0,0,0 179.6771185361943,316.73792590253845L233.95141235746289,291.15861726835897A120,120 0,0,1 225.07539655139766,264.72776789236104Z" style="pointer-events: all; stroke-width: 1; fill: rgb(105, 1, 31); fill-opacity: 1; stroke: rgb(255, 255, 255); stroke-opacity: 1; opacity: 1;"/><g class="slicetext"><text data-notex="1" class="slicetext" text-anchor="middle" x="0" y="0" style="font-family: 'Open Sans', verdana, arial, sans-serif; font-size: 12px; fill: rgb(255, 255, 255); fill-opacity: 1; white-space: pre;" transform="translate(201.80180517646795,291.99273192504535)scale(0.9466608015064624)rotate(-18.563096500530264)">subjective</text></g></g><g class="slice"><path class="surface" d="M233.95141235746289,291.15861726835897L179.6771185361943,316.73792590253845A180,180 0,0,0 362.8451324779305,418.84651404054665L356.06342165195366,359.23100936036445A120,120 0,0,1 233.95141235746289,291.15861726835897Z" style="pointer-events: all; stroke-width: 1; fill: rgb(203, 74, 66); fill-opacity: 1; stroke: rgb(255, 255, 255); stroke-opacity: 1; opacity: 1;"/><g class="slicetext"><text data-notex="1" class="slicetext" text-anchor="middle" x="0" y="0" style="font-family: 'Open Sans', verdana, arial, sans-serif; font-size: 12px; fill: rgb(255, 255, 255); fill-opacity: 1; white-space: pre;" transform="translate(271.8114668379793,366.8049873556351)rotate(29.137857900318068)">subjective</text></g></g><g class="slice"><path class="surface" d="M356.06342165195366,359.23100936036445L362.8451324779305,418.84651404054665A180,180 0,0,0 485.2153334534054,349.69199422602964L437.64355563560355,313.12799615068644A120,120 0,0,1 356.06342165195366,359.23100936036445Z" style="pointer-events: all; stroke-width: 1; fill: rgb(175, 23, 43); fill-opacity: 1; stroke: rgb(255, 255, 255); stroke-opacity: 1; opacity: 1;"/><g class="slicetext"><text data-notex="1" class="slicetext" text-anchor="middle" x="0" y="0" style="font-family: 'Open Sans', verdana, arial, sans-serif; font-size: 12px; fill: rgb(255, 255, 255); fill-opacity: 1; white-space: pre;" transform="translate(416.29949276272066,375.3395664590596)">objective</text></g></g><g class="slice"><path class="surface" d="M437.64355563560355,313.12799615068644L485.2153334534054,349.69199422602964A180,180 0,0,0 518.1663251861336,279.2599311716102L459.6108834574224,266.1732874477401A120,120 0,0,1 437.64355563560355,313.12799615068644Z" style="pointer-events: all; stroke-width: 1; fill: rgb(130, 9, 35); fill-opacity: 1; stroke: rgb(255, 255, 255); stroke-opacity: 1; opacity: 1;"/><g class="slicetext"><text data-notex="1" class="slicetext" text-anchor="middle" x="0" y="0" style="font-family: 'Open Sans', verdana, arial, sans-serif; font-size: 12px; fill: rgb(255, 255, 255); fill-opacity: 1; white-space: pre;" transform="translate(499.1153474786201,313.2710472501565)rotate(-64.92788971367975)">subjective</text></g></g><g class="slice"><path class="surface" d="M459.6108834574224,266.1732874477401L518.1663251861336,279.2599311716102A180,180 0,0,0 522.5,240.00000000000006L462.5,240.00000000000003A120,120 0,0,1 459.6108834574224,266.1732874477401Z" style="pointer-events: all; stroke-width: 1; fill: rgb(103, 0, 31); fill-opacity: 1; stroke: rgb(255, 255, 255); stroke-opacity: 1; opacity: 1;"/><g class="slicetext"><text data-notex="1" class="slicetext" text-anchor="middle" x="0" y="0" style="font-family: 'Open Sans', verdana, arial, sans-serif; font-size: 12px; fill: rgb(255, 255, 255); fill-opacity: 1; white-space: pre;" transform="translate(490.9860530844182,261.169360296864)rotate(6.299045599151668)">objective</text></g></g></g></g><g class="glimages"/><defs id="topdefs-427c00"><g class="clips"/></defs><g class="layer-above"><g class="imagelayer"/><g class="shapelayer"/></g><g class="infolayer"><g class="cbcoloraxis colorbar" transform="translate(80,60)"><rect class="cbbg" x="536" y="0" width="72.359375" height="360" style="fill: rgb(0, 0, 0); fill-opacity: 0; stroke: rgb(68, 68, 68); stroke-opacity: 1; stroke-width: 0;"/><g class="cbfills" transform="translate(0,30)"><rect class="cbfill" x="546" width="30" y="0" height="321" style="stroke: none; fill: url('#g427c00-cbcoloraxis');"/></g><g class="cblines" transform="translate(0,30)"/><g class="cbaxis crisp" transform="translate(0,-60)"><g class="ycbcoloraxistick"><text text-anchor="start" x="578.9" y="4.199999999999999" transform="translate(0,333.57)" style="font-family: 'Open Sans', verdana, arial, sans-serif; font-size: 12px; fill: rgb(42, 63, 95); fill-opacity: 1; white-space: pre;">5k</text></g><g class="ycbcoloraxistick"><text text-anchor="start" x="578.9" y="4.199999999999999" transform="translate(0,245.52000000000004)" style="font-family: 'Open Sans', verdana, arial, sans-serif; font-size: 12px; fill: rgb(42, 63, 95); fill-opacity: 1; white-space: pre;">10k</text></g><g class="ycbcoloraxistick"><text text-anchor="start" x="578.9" y="4.199999999999999" transform="translate(0,157.47000000000003)" style="font-family: 'Open Sans', verdana, arial, sans-serif; font-size: 12px; fill: rgb(42, 63, 95); fill-opacity: 1; white-space: pre;">15k</text></g></g><g class="cbtitleunshift" transform="translate(-80,-60)"><g class="cbtitle" transform="translate(0,0)"><text class="ycbcoloraxistitle" x="625.5" y="82" text-anchor="start" style="font-family: 'Open Sans', verdana, arial, sans-serif; font-size: 12px; fill: rgb(42, 63, 95); opacity: 1; font-weight: normal; white-space: pre;">size</text></g></g><rect class="cboutline" x="546" y="29.5" width="30" height="320.5" style="stroke: rgb(68, 68, 68); stroke-opacity: 1; fill: none; stroke-width: 0;"/></g><g class="g-gtitle"/></g></svg>