<svg class="main-svg" xmlns="http://www.w3.org/2000/svg" xmlns:xlink="http://www.w3.org/1999/xlink" width="700" height="500" viewBox="0 0 700 500"><rect x="0" y="0" width="700" height="500" style="fill: rgb(255, 255, 255); fill-opacity: 1;"/><defs id="defs-0dc284"><g class="clips"/><g class="gradients"><linearGradient x1="0" x2="0" y1="1" y2="0" id="g0dc284-cbcoloraxis"><stop offset="0%" stop-color="rgb(103, 0, 31)" stop-opacity="1"/><stop offset="10%" stop-color="rgb(178, 24, 43)" stop-opacity="1"/><stop offset="20%" stop-color="rgb(214, 96, 77)" stop-opacity="1"/><stop offset="30%" stop-color="rgb(244, 165, 130)" stop-opacity="1"/><stop offset="40%" stop-color="rgb(253, 219, 199)" stop-opacity="1"/><stop offset="50%" stop-color="rgb(247, 247, 247)" stop-opacity="1"/><stop offset="60%" stop-color="rgb(209, 229, 240)" stop-opacity="1"/><stop offset="70%" stop-color="rgb(146, 197, 222)" stop-opacity="1"/><stop offset="80%" stop-color="rgb(67, 147, 195)" stop-opacity="1"/><stop offset="90%" stop-color="rgb(33, 102, 172)" stop-opacity="1"/><stop offset="100%" stop-color="rgb(5, 48, 97)" stop-opacity="1"/></linearGradient></g></defs><g class="bglayer"/><g class="layer-below"><g class="imagelayer"/><g class="shapelayer"/></g><g class="cartesianlayer"/><g class="polarlayer"/><g class="ternarylayer"/><g class="geolayer"/><g class="funnelarealayer"/><g class="pielayer"/><g class="treemaplayer"/><g class="sunburstlayer"><g class="trace sunburst" stroke-linejoin="round" style="opacity: 1;"><g class="slice"><path class="surface" d="M338.5,240A0,0 0,1,0 338.5,240A0,0 0,1,0 338.5,240ZM398.5,240A60,60 0,1,1 278.5,240A60,60 0,1,1 398.5,240.00000000000003Z" style="pointer-events: all; stroke-width: 1; fill: rgb(5, 48, 97); fill-opacity: 1; stroke: rgb(255, 255, 255); stroke-opacity: 1;"/><g class="slicetext"><text data-notex="1" class="slicetext" text-anchor="middle" x="0" y="0" style="font-family: 'Open Sans', verdana, arial, sans-serif; font-size: 12px; fill: rgb(255, 255, 255); fill-opacity: 1; white-space: pre;" transform="translate(338.4921875,244.75)">great_mel</text></g></g><g class="slice cursor-pointer"><path class="surface" d="M398.5,240L458.5,240A120,120 0,1,0 224.70584224410754,278.0905455543375L281.6029211220538,259.04527277716875A60,60 0,1,1 398.5,240Z" style="pointer-events: all; stroke-width: 1; fill: rgb(237, 242, 245); fill-opacity: 1; stroke: rgb(255, 255, 255); stroke-opacity: 1;"/><g class="slicetext"><text data-notex="1" class="slicetext" text-anchor="middle" x="0" y="0" style="font-family: 'Open Sans', verdana, arial, sans-serif; font-size: 12px; fill: rgb(68, 68, 68); fill-opacity: 1; white-space: pre;" transform="translate(326.07359671104683,163.77715128620474)rotate(-9.253521126760575)">neutral</text></g></g><g class="slice cursor-pointer"><path class="surface" d="M281.6029211220538,259.04527277716875L224.70584224410754,278.0905455543375A120,120 0,0,0 409.03423027509666,337.0820393249938L373.76711513754833,288.54101966249686A60,60 0,0,1 281.6029211220538,259.04527277716875Z" style="pointer-events: all; stroke-width: 1; fill: rgb(232, 137, 109); fill-opacity: 1; stroke: rgb(255, 255, 255); stroke-opacity: 1;"/><g class="slicetext"><text data-notex="1" class="slicetext" text-anchor="middle" x="0" y="0" style="font-family: 'Open Sans', verdana, arial, sans-serif; font-size: 12px; fill: rgb(68, 68, 68); fill-opacity: 1; white-space: pre;" transform="translate(311.06748081472415,330.4673080022318)">positive</text></g></g><g class="slice cursor-pointer"><path class="surface" d="M373.76711513754833,288.54101966249686L409.03423027509666,337.0820393249938A120,120 0,0,0 458.5,240.00000000000014L398.5,240.00000000000006A60,60 0,0,1 373.76711513754833,288.54101966249686Z" style="pointer-events: all; stroke-width: 1; fill: rgb(179, 26, 44); fill-opacity: 1; stroke: rgb(255, 255, 255); stroke-opacity: 1;"/><g class="slicetext"><text data-notex="1" class="slicetext" text-anchor="middle" x="0" y="0" style="font-family: 'Open Sans', verdana, arial, sans-serif; font-size: 12px; fill: rgb(255, 255, 255); fill-opacity: 1; white-space: pre;" transform="translate(418.69058717695304,285.6091449765593)">negative</text></g></g><g class="slice"><path class="surface" d="M458.5,240L518.5,240A180,180 0,0,0 158.50176207686343,239.203542489574L218.50117471790895,239.46902832638267A120,120 0,0,1 458.5,240Z" style="pointer-events: all; stroke-width: 1; fill: rgb(249, 239, 233); fill-opacity: 1; stroke: rgb(255, 255, 255); stroke-opacity: 1; opacity: 1;"/><g class="slicetext"><text data-notex="1" class="slicetext" text-anchor="middle" x="0" y="0" style="font-family: 'Open Sans', verdana, arial, sans-serif; font-size: 12px; fill: rgb(68, 68, 68); fill-opacity: 1; white-space: pre;" transform="translate(338.83185810817776,94.75036709979577)">objective</text></g></g><g class="slice"><path class="surface" d="M218.50117471790895,239.46902832638267L158.50176207686343,239.203542489574A180,180 0,0,0 167.80876336616132,297.1358183315062L224.70584224410754,278.0905455543375A120,120 0,0,1 218.50117471790895,239.46902832638267Z" style="pointer-events: all; stroke-width: 1; fill: rgb(103, 0, 31); fill-opacity: 1; stroke: rgb(255, 255, 255); stroke-opacity: 1; opacity: 1;"/><g class="slicetext"><text data-notex="1" class="slicetext" text-anchor="middle" x="0" y="0" style="font-family: 'Open Sans', verdana, arial, sans-serif; font-size: 12px; fill: rgb(255, 255, 255); fill-opacity: 1; white-space: pre;" transform="translate(191.18138764854885,268.2214927754198)scale(0.9466608015064624)rotate(-9.12676056338023)">subjective</text></g></g><g class="slice"><path class="surface" d="M224.70584224410754,278.0905455543375L167.80876336616132,297.1358183315062A180,180 0,0,0 283.63496162944824,411.4346160044636L301.92330775296546,354.28974400297574A120,120 0,0,1 224.70584224410754,278.0905455543375Z" style="pointer-events: all; stroke-width: 1; fill: rgb(179, 26, 44); fill-opacity: 1; stroke: rgb(255, 255, 255); stroke-opacity: 1; opacity: 1;"/><g class="slicetext"><text data-notex="1" class="slicetext" text-anchor="middle" x="0" y="0" style="font-family: 'Open Sans', verdana, arial, sans-serif; font-size: 12px; fill: rgb(255, 255, 255); fill-opacity: 1; white-space: pre;" transform="translate(233.14029178493723,351.517653738559)">objective</text></g></g><g class="slice"><path class="surface" d="M301.92330775296546,354.28974400297574L283.63496162944824,411.4346160044636A180,180 0,0,0 444.301345412645,385.62305898749065L409.03423027509666,337.0820393249938A120,120 0,0,1 301.92330775296546,354.28974400297574Z" style="pointer-events: all; stroke-width: 1; fill: rgb(179, 26, 44); fill-opacity: 1; stroke: rgb(255, 255, 255); stroke-opacity: 1; opacity: 1;"/><g class="slicetext"><text data-notex="1" class="slicetext" text-anchor="middle" x="0" y="0" style="font-family: 'Open Sans', verdana, arial, sans-serif; font-size: 12px; fill: rgb(255, 255, 255); fill-opacity: 1; white-space: pre;" transform="translate(363.20903145967293,393.80361319545324)rotate(-9.12676056338023)">subjective</text></g></g><g class="slice"><path class="surface" d="M409.03423027509666,337.0820393249938L444.301345412645,385.62305898749065A180,180 0,0,0 504.72201609864624,309.06693394165825L449.3146773990975,286.0446226277721A120,120 0,0,1 409.03423027509666,337.0820393249938Z" style="pointer-events: all; stroke-width: 1; fill: rgb(131, 9, 35); fill-opacity: 1; stroke: rgb(255, 255, 255); stroke-opacity: 1; opacity: 1;"/><g class="slicetext"><text data-notex="1" class="slicetext" text-anchor="middle" x="0" y="0" style="font-family: 'Open Sans', verdana, arial, sans-serif; font-size: 12px; fill: rgb(255, 255, 255); fill-opacity: 1; white-space: pre;" transform="translate(471.35822965345864,344.8561867128325)rotate(-51.71830985915494)">subjective</text></g></g><g class="slice"><path class="surface" d="M449.3146773990975,286.0446226277721L504.72201609864624,309.06693394165825A180,180 0,0,0 518.5,240.0000000000002L458.5,240.00000000000014A120,120 0,0,1 449.3146773990975,286.0446226277721Z" style="pointer-events: all; stroke-width: 1; fill: rgb(111, 3, 32); fill-opacity: 1; stroke: rgb(255, 255, 255); stroke-opacity: 1; opacity: 1;"/><g class="slicetext"><text data-notex="1" class="slicetext" text-anchor="middle" x="0" y="0" style="font-family: 'Open Sans', verdana, arial, sans-serif; font-size: 12px; fill: rgb(255, 255, 255); fill-opacity: 1; white-space: pre;" transform="translate(486.13889581912434,274.20210122586053)">objective</text></g></g></g></g><g class="glimages"/><defs id="topdefs-0dc284"><g class="clips"/></defs><g class="layer-above"><g class="imagelayer"/><g class="shapelayer"/></g><g class="infolayer"><g class="cbcoloraxis colorbar" transform="translate(80,60)"><rect class="cbbg" x="527" y="0" width="80.515625" height="360" style="fill: rgb(0, 0, 0); fill-opacity: 0; stroke: rgb(68, 68, 68); stroke-opacity: 1; stroke-width: 0;"/><g class="cbfills" transform="translate(0,30)"><rect class="cbfill" x="537" width="30" y="0" height="321" style="stroke: none; fill: url('#g0dc284-cbcoloraxis');"/></g><g class="cblines" transform="translate(0,30)"/><g class="cbaxis crisp" transform="translate(0,-60)"><g class="ycbcoloraxistick"><text text-anchor="start" x="569.9" y="4.199999999999999" transform="translate(0,380)" style="font-family: 'Open Sans', verdana, arial, sans-serif; font-size: 12px; fill: rgb(42, 63, 95); fill-opacity: 1; white-space: pre;">200</text></g><g class="ycbcoloraxistick"><text text-anchor="start" x="569.9" y="4.199999999999999" transform="translate(0,332.38)" style="font-family: 'Open Sans', verdana, arial, sans-serif; font-size: 12px; fill: rgb(42, 63, 95); fill-opacity: 1; white-space: pre;">400</text></g><g class="ycbcoloraxistick"><text text-anchor="start" x="569.9" y="4.199999999999999" transform="translate(0,284.75)" style="font-family: 'Open Sans', verdana, arial, sans-serif; font-size: 12px; fill: rgb(42, 63, 95); fill-opacity: 1; white-space: pre;">600</text></g><g class="ycbcoloraxistick"><text text-anchor="start" x="569.9" y="4.199999999999999" transform="translate(0,237.13)" style="font-family: 'Open Sans', verdana, arial, sans-serif; font-size: 12px; fill: rgb(42, 63, 95); fill-opacity: 1; white-space: pre;">800</text></g><g class="ycbcoloraxistick"><text text-anchor="start" x="569.9" y="4.199999999999999" transform="translate(0,189.51000000000002)" style="font-family: 'Open Sans', verdana, arial, sans-serif; font-size: 12px; fill: rgb(42, 63, 95); fill-opacity: 1; white-space: pre;">1000</text></g><g class="ycbcoloraxistick"><text text-anchor="start" x="569.9" y="4.199999999999999" transform="translate(0,141.88000000000002)" style="font-family: 'Open Sans', verdana, arial, sans-serif; font-size: 12px; fill: rgb(42, 63, 95); fill-opacity: 1; white-space: pre;">1200</text></g><g class="ycbcoloraxistick"><text text-anchor="start" x="569.9" y="4.199999999999999" transform="translate(0,94.26000000000002)" style="font-family: 'Open Sans', verdana, arial, sans-serif; font-size: 12px; fill: rgb(42, 63, 95); fill-opacity: 1; white-space: pre;">1400</text></g></g><g class="cbtitleunshift" transform="translate(-80,-60)"><g class="cbtitle" transform="translate(0,0)"><text class="ycbcoloraxistitle" x="617.34" y="82" text-anchor="start" style="font-family: 'Open Sans', verdana, arial, sans-serif; font-size: 12px; fill: rgb(42, 63, 95); opacity: 1; font-weight: normal; white-space: pre;">size</text></g></g><rect class="cboutline" x="537" y="29.5" width="30" height="320.5" style="stroke: rgb(68, 68, 68); stroke-opacity: 1; fill: none; stroke-width: 0;"/></g><g class="g-gtitle"/></g></svg>