<svg class="main-svg" xmlns="http://www.w3.org/2000/svg" xmlns:xlink="http://www.w3.org/1999/xlink" width="700" height="500" viewBox="0 0 700 500"><rect x="0" y="0" width="700" height="500" style="fill: rgb(255, 255, 255); fill-opacity: 1;"/><defs id="defs-b96647"><g class="clips"/><g class="gradients"><linearGradient x1="0" x2="0" y1="1" y2="0" id="gb96647-cbcoloraxis"><stop offset="0%" stop-color="rgb(103, 0, 31)" stop-opacity="1"/><stop offset="10%" stop-color="rgb(178, 24, 43)" stop-opacity="1"/><stop offset="20%" stop-color="rgb(214, 96, 77)" stop-opacity="1"/><stop offset="30%" stop-color="rgb(244, 165, 130)" stop-opacity="1"/><stop offset="40%" stop-color="rgb(253, 219, 199)" stop-opacity="1"/><stop offset="50%" stop-color="rgb(247, 247, 247)" stop-opacity="1"/><stop offset="60%" stop-color="rgb(209, 229, 240)" stop-opacity="1"/><stop offset="70%" stop-color="rgb(146, 197, 222)" stop-opacity="1"/><stop offset="80%" stop-color="rgb(67, 147, 195)" stop-opacity="1"/><stop offset="90%" stop-color="rgb(33, 102, 172)" stop-opacity="1"/><stop offset="100%" stop-color="rgb(5, 48, 97)" stop-opacity="1"/></linearGradient></g></defs><g class="bglayer"/><g class="layer-below"><g class="imagelayer"/><g class="shapelayer"/></g><g class="cartesianlayer"/><g class="polarlayer"/><g class="ternarylayer"/><g class="geolayer"/><g class="funnelarealayer"/><g class="pielayer"/><g class="treemaplayer"/><g class="sunburstlayer"><g class="trace sunburst" stroke-linejoin="round" style="opacity: 1;"><g class="slice"><path class="surface" d="M339,240A0,0 0,1,0 339,240A0,0 0,1,0 339,240ZM399,240A60,60 0,1,1 279,240A60,60 0,1,1 399,240.00000000000003Z" style="pointer-events: all; stroke-width: 1; fill: rgb(5, 48, 97); fill-opacity: 1; stroke: rgb(255, 255, 255); stroke-opacity: 1;"/><g class="slicetext"><text data-notex="1" class="slicetext" text-anchor="middle" x="0" y="0" style="font-family: 'Open Sans', verdana, arial, sans-serif; font-size: 12px; fill: rgb(255, 255, 255); fill-opacity: 1; white-space: pre;" transform="translate(339,244.75)">Greater_Sydney</text></g></g><g class="slice cursor-pointer"><path class="surface" d="M399,240L459,240A120,120 0,1,0 249.2170627894586,319.6179890844273L294.1085313947293,279.80899454221367A60,60 0,1,1 399,240Z" style="pointer-events: all; stroke-width: 1; fill: rgb(208, 228, 240); fill-opacity: 1; stroke: rgb(255, 255, 255); stroke-opacity: 1;"/><g class="slicetext"><text data-notex="1" class="slicetext" text-anchor="middle" x="0" y="0" style="font-family: 'Open Sans', verdana, arial, sans-serif; font-size: 12px; fill: rgb(68, 68, 68); fill-opacity: 1; white-space: pre;" transform="translate(311.5894737968452,167.7988835404051)rotate(-20.783034418769944)">neutral</text></g></g><g class="slice cursor-pointer"><path class="surface" d="M294.1085313947293,279.80899454221367L249.2170627894586,319.6179890844273A120,120 0,0,0 439.22436830845265,305.9929996073191L389.1121841542263,272.99649980365956A60,60 0,0,1 294.1085313947293,279.80899454221367Z" style="pointer-events: all; stroke-width: 1; fill: rgb(234, 142, 113); fill-opacity: 1; stroke: rgb(255, 255, 255); stroke-opacity: 1;"/><g class="slicetext"><text data-notex="1" class="slicetext" text-anchor="middle" x="0" y="0" style="font-family: 'Open Sans', verdana, arial, sans-serif; font-size: 12px; fill: rgb(68, 68, 68); fill-opacity: 1; white-space: pre;" transform="translate(345.4371655187542,334.5194987180176)">positive</text></g></g><g class="slice cursor-pointer"><path class="surface" d="M389.1121841542263,272.99649980365956L439.22436830845265,305.9929996073191A120,120 0,0,0 459,240.00000000000003L399,240.00000000000003A60,60 0,0,1 389.1121841542263,272.99649980365956Z" style="pointer-events: all; stroke-width: 1; fill: rgb(149, 15, 38); fill-opacity: 1; stroke: rgb(255, 255, 255); stroke-opacity: 1;"/><g class="slicetext"><text data-notex="1" class="slicetext" text-anchor="middle" x="0" y="0" style="font-family: 'Open Sans', verdana, arial, sans-serif; font-size: 12px; fill: rgb(255, 255, 255); fill-opacity: 1; white-space: pre;" transform="translate(423.70901244791963,270.3428054172833)rotate(16.681505463375174)">negative</text></g></g><g class="slice"><path class="surface" d="M459,240L519,240A180,180 0,1,0 180.31514185042846,324.9653799735537L233.2100945669523,296.6435866490358A120,120 0,1,1 459,240Z" style="pointer-events: all; stroke-width: 1; fill: rgb(223, 236, 243); fill-opacity: 1; stroke: rgb(255, 255, 255); stroke-opacity: 1; opacity: 1;"/><g class="slicetext"><text data-notex="1" class="slicetext" text-anchor="middle" x="0" y="0" style="font-family: 'Open Sans', verdana, arial, sans-serif; font-size: 12px; fill: rgb(68, 68, 68); fill-opacity: 1; white-space: pre;" transform="translate(305.7333108596021,107.39394449682354)rotate(-14.083070939976892)">objective</text></g></g><g class="slice"><path class="surface" d="M233.2100945669523,296.6435866490358L180.31514185042846,324.9653799735537A180,180 0,0,0 204.3255941841879,359.4269836266409L249.2170627894586,319.6179890844273A120,120 0,0,1 233.2100945669523,296.6435866490358Z" style="pointer-events: all; stroke-width: 1; fill: rgb(106, 1, 31); fill-opacity: 1; stroke: rgb(255, 255, 255); stroke-opacity: 1; opacity: 1;"/><g class="slicetext"><text data-notex="1" class="slicetext" text-anchor="middle" x="0" y="0" style="font-family: 'Open Sans', verdana, arial, sans-serif; font-size: 12px; fill: rgb(255, 255, 255); fill-opacity: 1; white-space: pre;" transform="translate(218.55445154536145,329.398523797049)scale(0.9466608015064624)rotate(-34.866105358746836)">subjective</text></g></g><g class="slice"><path class="surface" d="M249.2170627894586,319.6179890844273L204.3255941841879,359.4269836266409A180,180 0,0,0 375.8967106292692,416.17784408017934L363.59780708617944,357.45189605345286A120,120 0,0,1 249.2170627894586,319.6179890844273Z" style="pointer-events: all; stroke-width: 1; fill: rgb(192, 52, 56); fill-opacity: 1; stroke: rgb(255, 255, 255); stroke-opacity: 1; opacity: 1;"/><g class="slicetext"><text data-notex="1" class="slicetext" text-anchor="middle" x="0" y="0" style="font-family: 'Open Sans', verdana, arial, sans-serif; font-size: 12px; fill: rgb(255, 255, 255); fill-opacity: 1; white-space: pre;" transform="translate(291.37196393249786,383.9906859011939)rotate(18.302750935239033)">subjective</text></g></g><g class="slice"><path class="surface" d="M363.59780708617944,357.45189605345286L375.8967106292692,416.17784408017934A180,180 0,0,0 489.33655246267904,338.98949941097874L439.22436830845265,305.9929996073191A120,120 0,0,1 363.59780708617944,357.45189605345286Z" style="pointer-events: all; stroke-width: 1; fill: rgb(174, 23, 42); fill-opacity: 1; stroke: rgb(255, 255, 255); stroke-opacity: 1; opacity: 1;"/><g class="slicetext"><text data-notex="1" class="slicetext" text-anchor="middle" x="0" y="0" style="font-family: 'Open Sans', verdana, arial, sans-serif; font-size: 12px; fill: rgb(255, 255, 255); fill-opacity: 1; white-space: pre;" transform="translate(423.3833178624628,368.7639333563877)">objective</text></g></g><g class="slice"><path class="surface" d="M439.22436830845265,305.9929996073191L489.33655246267904,338.98949941097874A180,180 0,0,0 515.0294232218766,277.5984329483745L456.35294881458447,265.06562196558303A120,120 0,0,1 439.22436830845265,305.9929996073191Z" style="pointer-events: all; stroke-width: 1; fill: rgb(123, 6, 34); fill-opacity: 1; stroke: rgb(255, 255, 255); stroke-opacity: 1; opacity: 1;"/><g class="slicetext"><text data-notex="1" class="slicetext" text-anchor="middle" x="0" y="0" style="font-family: 'Open Sans', verdana, arial, sans-serif; font-size: 12px; fill: rgb(255, 255, 255); fill-opacity: 1; white-space: pre;" transform="translate(500.1878886012556,307.4589940916353)scale(0.9689463444614528)rotate(-67.29012644234092)">subjective</text></g></g><g class="slice"><path class="surface" d="M456.35294881458447,265.06562196558303L515.0294232218766,277.5984329483745A180,180 0,0,0 519,240.00000000000006L459,240.00000000000003A120,120 0,0,1 456.35294881458447,265.06562196558303Z" style="pointer-events: all; stroke-width: 1; fill: rgb(103, 0, 31); fill-opacity: 1; stroke: rgb(255, 255, 255); stroke-opacity: 1; opacity: 1;"/><g class="slicetext"><text data-notex="1" class="slicetext" text-anchor="middle" x="0" y="0" style="font-family: 'Open Sans', verdana, arial, sans-serif; font-size: 12px; fill: rgb(255, 255, 255); fill-opacity: 1; white-space: pre;" transform="translate(487.5844043264902,260.46764683370304)rotate(6.028368094283962)">objective</text></g></g></g></g><g class="glimages"/><defs id="topdefs-b96647"><g class="clips"/></defs><g class="layer-above"><g class="imagelayer"/><g class="shapelayer"/></g><g class="infolayer"><g class="cbcoloraxis colorbar" transform="translate(80,60)"><rect class="cbbg" x="528" y="0" width="79.984375" height="360" style="fill: rgb(0, 0, 0); fill-opacity: 0; stroke: rgb(68, 68, 68); stroke-opacity: 1; stroke-width: 0;"/><g class="cbfills" transform="translate(0,30)"><rect class="cbfill" x="538" width="30" y="0" height="321" style="stroke: none; fill: url('#gb96647-cbcoloraxis');"/></g><g class="cblines" transform="translate(0,30)"/><g class="cbaxis crisp" transform="translate(0,-60)"><g class="ycbcoloraxistick"><text text-anchor="start" x="570.9" y="4.199999999999999" transform="translate(0,355.64)" style="font-family: 'Open Sans', verdana, arial, sans-serif; font-size: 12px; fill: rgb(42, 63, 95); fill-opacity: 1; white-space: pre;">20k</text></g><g class="ycbcoloraxistick"><text text-anchor="start" x="570.9" y="4.199999999999999" transform="translate(0,290.18)" style="font-family: 'Open Sans', verdana, arial, sans-serif; font-size: 12px; fill: rgb(42, 63, 95); fill-opacity: 1; white-space: pre;">40k</text></g><g class="ycbcoloraxistick"><text text-anchor="start" x="570.9" y="4.199999999999999" transform="translate(0,224.72000000000003)" style="font-family: 'Open Sans', verdana, arial, sans-serif; font-size: 12px; fill: rgb(42, 63, 95); fill-opacity: 1; white-space: pre;">60k</text></g><g class="ycbcoloraxistick"><text text-anchor="start" x="570.9" y="4.199999999999999" transform="translate(0,159.25)" style="font-family: 'Open Sans', verdana, arial, sans-serif; font-size: 12px; fill: rgb(42, 63, 95); fill-opacity: 1; white-space: pre;">80k</text></g><g class="ycbcoloraxistick"><text text-anchor="start" x="570.9" y="4.199999999999999" transform="translate(0,93.79000000000002)" style="font-family: 'Open Sans', verdana, arial, sans-serif; font-size: 12px; fill: rgb(42, 63, 95); fill-opacity: 1; white-space: pre;">100k</text></g></g><g class="cbtitleunshift" transform="translate(-80,-60)"><g class="cbtitle" transform="translate(0,0)"><text class="ycbcoloraxistitle" x="618.36" y="82" text-anchor="start" style="font-family: 'Open Sans', verdana, arial, sans-serif; font-size: 12px; fill: rgb(42, 63, 95); opacity: 1; font-weight: normal; white-space: pre;">size</text></g></g><rect class="cboutline" x="538" y="29.5" width="30" height="320.5" style="stroke: rgb(68, 68, 68); stroke-opacity: 1; fill: none; stroke-width: 0;"/></g><g class="g-gtitle"/></g></svg>