<svg class="main-svg" xmlns="http://www.w3.org/2000/svg" xmlns:xlink="http://www.w3.org/1999/xlink" width="700" height="500" viewBox="0 0 700 500"><rect x="0" y="0" width="700" height="500" style="fill: rgb(255, 255, 255); fill-opacity: 1;"/><defs id="defs-6aa7b2"><g class="clips"/><g class="gradients"><linearGradient x1="0" x2="0" y1="1" y2="0" id="g6aa7b2-cbcoloraxis"><stop offset="0%" stop-color="rgb(103, 0, 31)" stop-opacity="1"/><stop offset="10%" stop-color="rgb(178, 24, 43)" stop-opacity="1"/><stop offset="20%" stop-color="rgb(214, 96, 77)" stop-opacity="1"/><stop offset="30%" stop-color="rgb(244, 165, 130)" stop-opacity="1"/><stop offset="40%" stop-color="rgb(253, 219, 199)" stop-opacity="1"/><stop offset="50%" stop-color="rgb(247, 247, 247)" stop-opacity="1"/><stop offset="60%" stop-color="rgb(209, 229, 240)" stop-opacity="1"/><stop offset="70%" stop-color="rgb(146, 197, 222)" stop-opacity="1"/><stop offset="80%" stop-color="rgb(67, 147, 195)" stop-opacity="1"/><stop offset="90%" stop-color="rgb(33, 102, 172)" stop-opacity="1"/><stop offset="100%" stop-color="rgb(5, 48, 97)" stop-opacity="1"/></linearGradient></g></defs><g class="bglayer"/><g class="layer-below"><g class="imagelayer"/><g class="shapelayer"/></g><g class="cartesianlayer"/><g class="polarlayer"/><g class="ternarylayer"/><g class="geolayer"/><g class="funnelarealayer"/><g class="pielayer"/><g class="treemaplayer"/><g class="sunburstlayer"><g class="trace sunburst" stroke-linejoin="round" style="opacity: 1;"><g class="slice"><path class="surface" d="M342.5,240A0,0 0,1,0 342.5,240A0,0 0,1,0 342.5,240ZM402.5,240A60,60 0,1,1 282.5,240A60,60 0,1,1 402.5,240.00000000000003Z" style="pointer-events: all; stroke-width: 1; fill: rgb(5, 48, 97); fill-opacity: 1; stroke: rgb(255, 255, 255); stroke-opacity: 1;"/><g class="slicetext"><text data-notex="1" class="slicetext" text-anchor="middle" x="0" y="0" style="font-family: 'Open Sans', verdana, arial, sans-serif; font-size: 12px; fill: rgb(255, 255, 255); fill-opacity: 1; white-space: pre;" transform="translate(342.5,244.75)">Greater_Brisbane</text></g></g><g class="slice cursor-pointer"><path class="surface" d="M402.5,240L462.5,240A120,120 0,1,0 236.49848687331303,296.24659291772974L289.4992434366565,268.1232964588649A60,60 0,1,1 402.5,240Z" style="pointer-events: all; stroke-width: 1; fill: rgb(223, 236, 243); fill-opacity: 1; stroke: rgb(255, 255, 255); stroke-opacity: 1;"/><g class="slicetext"><text data-notex="1" class="slicetext" text-anchor="middle" x="0" y="0" style="font-family: 'Open Sans', verdana, arial, sans-serif; font-size: 12px; fill: rgb(68, 68, 68); fill-opacity: 1; white-space: pre;" transform="translate(323.840820456346,165.05886854668185)rotate(-13.975672638328774)">neutral</text></g></g><g class="slice cursor-pointer"><path class="surface" d="M289.4992434366565,268.1232964588649L236.49848687331303,296.24659291772974A120,120 0,0,0 439.6025433025729,310.506000341616L391.05127165128647,275.25300017080804A60,60 0,0,1 289.4992434366565,268.1232964588649Z" style="pointer-events: all; stroke-width: 1; fill: rgb(243, 163, 129); fill-opacity: 1; stroke: rgb(255, 255, 255); stroke-opacity: 1;"/><g class="slicetext"><text data-notex="1" class="slicetext" text-anchor="middle" x="0" y="0" style="font-family: 'Open Sans', verdana, arial, sans-serif; font-size: 12px; fill: rgb(68, 68, 68); fill-opacity: 1; white-space: pre;" transform="translate(336.1968494037482,334.52900808407816)">positive</text></g></g><g class="slice cursor-pointer"><path class="surface" d="M391.05127165128647,275.25300017080804L439.6025433025729,310.506000341616A120,120 0,0,0 462.5,240.00000000000014L402.5,240.00000000000006A60,60 0,0,1 391.05127165128647,275.25300017080804Z" style="pointer-events: all; stroke-width: 1; fill: rgb(153, 16, 39); fill-opacity: 1; stroke: rgb(255, 255, 255); stroke-opacity: 1;"/><g class="slicetext"><text data-notex="1" class="slicetext" text-anchor="middle" x="0" y="0" style="font-family: 'Open Sans', verdana, arial, sans-serif; font-size: 12px; fill: rgb(255, 255, 255); fill-opacity: 1; white-space: pre;" transform="translate(429.69843102368236,273.06847344586714)">negative</text></g></g><g class="slice"><path class="surface" d="M462.5,240L522.5,240A180,180 0,1,0 167.07836889670097,280.33920352533084L225.55224593113397,266.89280235022056A120,120 0,1,1 462.5,240Z" style="pointer-events: all; stroke-width: 1; fill: rgb(240, 244, 246); fill-opacity: 1; stroke: rgb(255, 255, 255); stroke-opacity: 1; opacity: 1;"/><g class="slicetext"><text data-notex="1" class="slicetext" text-anchor="middle" x="0" y="0" style="font-family: 'Open Sans', verdana, arial, sans-serif; font-size: 12px; fill: rgb(68, 68, 68); fill-opacity: 1; white-space: pre;" transform="translate(327.08225502856857,104.1569593152771)rotate(-6.475176836120795)">objective</text></g></g><g class="slice"><path class="surface" d="M225.55224593113397,266.89280235022056L167.07836889670097,280.33920352533084A180,180 0,0,0 183.4977303099695,324.36988937659464L236.49848687331303,296.24659291772974A120,120 0,0,1 225.55224593113397,266.89280235022056Z" style="pointer-events: all; stroke-width: 1; fill: rgb(108, 1, 32); fill-opacity: 1; stroke: rgb(255, 255, 255); stroke-opacity: 1; opacity: 1;"/><g class="slicetext"><text data-notex="1" class="slicetext" text-anchor="middle" x="0" y="0" style="font-family: 'Open Sans', verdana, arial, sans-serif; font-size: 12px; fill: rgb(255, 255, 255); fill-opacity: 1; white-space: pre;" transform="translate(203.59088577023658,296.5993302392595)scale(0.9466608015064624)rotate(-20.45084947444957)">subjective</text></g></g><g class="slice"><path class="surface" d="M236.49848687331303,296.24659291772974L183.4977303099695,324.36988937659464A180,180 0,0,0 361.6843827674926,418.9747453073487L355.28958851166175,359.3164968715658A120,120 0,0,1 236.49848687331303,296.24659291772974Z" style="pointer-events: all; stroke-width: 1; fill: rgb(199, 67, 63); fill-opacity: 1; stroke: rgb(255, 255, 255); stroke-opacity: 1; opacity: 1;"/><g class="slicetext"><text data-notex="1" class="slicetext" text-anchor="middle" x="0" y="0" style="font-family: 'Open Sans', verdana, arial, sans-serif; font-size: 12px; fill: rgb(255, 255, 255); fill-opacity: 1; white-space: pre;" transform="translate(273.75643219074806,369.47735193300355)rotate(27.96522773848085)">subjective</text></g></g><g class="slice"><path class="surface" d="M355.28958851166175,359.3164968715658L361.6843827674926,418.9747453073487A180,180 0,0,0 488.1538149538593,345.759000512424L439.6025433025729,310.506000341616A120,120 0,0,1 355.28958851166175,359.3164968715658Z" style="pointer-events: all; stroke-width: 1; fill: rgb(178, 25, 43); fill-opacity: 1; stroke: rgb(255, 255, 255); stroke-opacity: 1; opacity: 1;"/><g class="slicetext"><text data-notex="1" class="slicetext" text-anchor="middle" x="0" y="0" style="font-family: 'Open Sans', verdana, arial, sans-serif; font-size: 12px; fill: rgb(255, 255, 255); fill-opacity: 1; white-space: pre;" transform="translate(417.65282660128645,374.56545614385436)">objective</text></g></g><g class="slice"><path class="surface" d="M439.6025433025729,310.506000341616L488.1538149538593,345.759000512424A180,180 0,0,0 517.9967238559115,280.01124736673364L459.497815903941,266.6741649111558A120,120 0,0,1 439.6025433025729,310.506000341616Z" style="pointer-events: all; stroke-width: 1; fill: rgb(125, 7, 35); fill-opacity: 1; stroke: rgb(255, 255, 255); stroke-opacity: 1; opacity: 1;"/><g class="slicetext"><text data-notex="1" class="slicetext" text-anchor="middle" x="0" y="0" style="font-family: 'Open Sans', verdana, arial, sans-serif; font-size: 12px; fill: rgb(255, 255, 255); fill-opacity: 1; white-space: pre;" transform="translate(500.8472106707144,311.8738079530849)rotate(-65.58669927943413)">subjective</text></g></g><g class="slice"><path class="surface" d="M459.497815903941,266.6741649111558L517.9967238559115,280.01124736673364A180,180 0,0,0 522.5,240.0000000000002L462.5,240.00000000000014A120,120 0,0,1 459.497815903941,266.6741649111558Z" style="pointer-events: all; stroke-width: 1; fill: rgb(103, 0, 31); fill-opacity: 1; stroke: rgb(255, 255, 255); stroke-opacity: 1; opacity: 1;"/><g class="slicetext"><text data-notex="1" class="slicetext" text-anchor="middle" x="0" y="0" style="font-family: 'Open Sans', verdana, arial, sans-serif; font-size: 12px; fill: rgb(255, 255, 255); fill-opacity: 1; white-space: pre;" transform="translate(490.9404213238982,261.48699823499516)rotate(6.4216301976598515)">objective</text></g></g></g></g><g class="glimages"/><defs id="topdefs-6aa7b2"><g class="clips"/></defs><g class="layer-above"><g class="imagelayer"/><g class="shapelayer"/></g><g class="infolayer"><g class="cbcoloraxis colorbar" transform="translate(80,60)"><rect class="cbbg" x="536" y="0" width="72.359375" height="360" style="fill: rgb(0, 0, 0); fill-opacity: 0; stroke: rgb(68, 68, 68); stroke-opacity: 1; stroke-width: 0;"/><g class="cbfills" transform="translate(0,30)"><rect class="cbfill" x="546" width="30" y="0" height="321" style="stroke: none; fill: url('#g6aa7b2-cbcoloraxis');"/></g><g class="cblines" transform="translate(0,30)"/><g class="cbaxis crisp" transform="translate(0,-60)"><g class="ycbcoloraxistick"><text text-anchor="start" x="578.9" y="4.199999999999999" transform="translate(0,385.24)" style="font-family: 'Open Sans', verdana, arial, sans-serif; font-size: 12px; fill: rgb(42, 63, 95); fill-opacity: 1; white-space: pre;">5k</text></g><g class="ycbcoloraxistick"><text text-anchor="start" x="578.9" y="4.199999999999999" transform="translate(0,348.62)" style="font-family: 'Open Sans', verdana, arial, sans-serif; font-size: 12px; fill: rgb(42, 63, 95); fill-opacity: 1; white-space: pre;">10k</text></g><g class="ycbcoloraxistick"><text text-anchor="start" x="578.9" y="4.199999999999999" transform="translate(0,312)" style="font-family: 'Open Sans', verdana, arial, sans-serif; font-size: 12px; fill: rgb(42, 63, 95); fill-opacity: 1; white-space: pre;">15k</text></g><g class="ycbcoloraxistick"><text text-anchor="start" x="578.9" y="4.199999999999999" transform="translate(0,275.38)" style="font-family: 'Open Sans', verdana, arial, sans-serif; font-size: 12px; fill: rgb(42, 63, 95); fill-opacity: 1; white-space: pre;">20k</text></g><g class="ycbcoloraxistick"><text text-anchor="start" x="578.9" y="4.199999999999999" transform="translate(0,238.76)" style="font-family: 'Open Sans', verdana, arial, sans-serif; font-size: 12px; fill: rgb(42, 63, 95); fill-opacity: 1; white-space: pre;">25k</text></g><g class="ycbcoloraxistick"><text text-anchor="start" x="578.9" y="4.199999999999999" transform="translate(0,202.15000000000003)" style="font-family: 'Open Sans', verdana, arial, sans-serif; font-size: 12px; fill: rgb(42, 63, 95); fill-opacity: 1; white-space: pre;">30k</text></g><g class="ycbcoloraxistick"><text text-anchor="start" x="578.9" y="4.199999999999999" transform="translate(0,165.53000000000003)" style="font-family: 'Open Sans', verdana, arial, sans-serif; font-size: 12px; fill: rgb(42, 63, 95); fill-opacity: 1; white-space: pre;">35k</text></g><g class="ycbcoloraxistick"><text text-anchor="start" x="578.9" y="4.199999999999999" transform="translate(0,128.91000000000003)" style="font-family: 'Open Sans', verdana, arial, sans-serif; font-size: 12px; fill: rgb(42, 63, 95); fill-opacity: 1; white-space: pre;">40k</text></g><g class="ycbcoloraxistick"><text text-anchor="start" x="578.9" y="4.199999999999999" transform="translate(0,92.29000000000002)" style="font-family: 'Open Sans', verdana, arial, sans-serif; font-size: 12px; fill: rgb(42, 63, 95); fill-opacity: 1; white-space: pre;">45k</text></g></g><g class="cbtitleunshift" transform="translate(-80,-60)"><g class="cbtitle" transform="translate(0,0)"><text class="ycbcoloraxistitle" x="625.5" y="82" text-anchor="start" style="font-family: 'Open Sans', verdana, arial, sans-serif; font-size: 12px; fill: rgb(42, 63, 95); opacity: 1; font-weight: normal; white-space: pre;">size</text></g></g><rect class="cboutline" x="546" y="29.5" width="30" height="320.5" style="stroke: rgb(68, 68, 68); stroke-opacity: 1; fill: none; stroke-width: 0;"/></g><g class="g-gtitle"/></g></svg>