<svg class="main-svg" xmlns="http://www.w3.org/2000/svg" xmlns:xlink="http://www.w3.org/1999/xlink" width="700" height="500" viewBox="0 0 700 500"><rect x="0" y="0" width="700" height="500" style="fill: rgb(255, 255, 255); fill-opacity: 1;"/><defs id="defs-edaadf"><g class="clips"/><g class="gradients"><linearGradient x1="0" x2="0" y1="1" y2="0" id="gedaadf-cbcoloraxis"><stop offset="0%" stop-color="rgb(103, 0, 31)" stop-opacity="1"/><stop offset="10%" stop-color="rgb(178, 24, 43)" stop-opacity="1"/><stop offset="20%" stop-color="rgb(214, 96, 77)" stop-opacity="1"/><stop offset="30%" stop-color="rgb(244, 165, 130)" stop-opacity="1"/><stop offset="40%" stop-color="rgb(253, 219, 199)" stop-opacity="1"/><stop offset="50%" stop-color="rgb(247, 247, 247)" stop-opacity="1"/><stop offset="60%" stop-color="rgb(209, 229, 240)" stop-opacity="1"/><stop offset="70%" stop-color="rgb(146, 197, 222)" stop-opacity="1"/><stop offset="80%" stop-color="rgb(67, 147, 195)" stop-opacity="1"/><stop offset="90%" stop-color="rgb(33, 102, 172)" stop-opacity="1"/><stop offset="100%" stop-color="rgb(5, 48, 97)" stop-opacity="1"/></linearGradient></g></defs><g class="bglayer"/><g class="layer-below"><g class="imagelayer"/><g class="shapelayer"/></g><g class="cartesianlayer"/><g class="polarlayer"/><g class="ternarylayer"/><g class="geolayer"/><g class="funnelarealayer"/><g class="pielayer"/><g class="treemaplayer"/><g class="sunburstlayer"><g class="trace sunburst" stroke-linejoin="round" style="opacity: 1;"><g class="slice"><path class="surface" d="M338.5,240A0,0 0,1,0 338.5,240A0,0 0,1,0 338.5,240ZM398.5,240A60,60 0,1,1 278.5,240A60,60 0,1,1 398.5,240.00000000000003Z" style="pointer-events: all; stroke-width: 1; fill: rgb(5, 48, 97); fill-opacity: 1; stroke: rgb(255, 255, 255); stroke-opacity: 1;"/><g class="slicetext"><text data-notex="1" class="slicetext" text-anchor="middle" x="0" y="0" style="font-family: 'Open Sans', verdana, arial, sans-serif; font-size: 12px; fill: rgb(255, 255, 255); fill-opacity: 1; white-space: pre;" transform="translate(338.4921875,244.75)">great_syd</text></g></g><g class="slice cursor-pointer"><path class="surface" d="M398.5,240L458.5,240A120,120 0,1,0 234.1918307460814,299.3279514806964L286.3459153730407,269.66397574034823A60,60 0,1,1 398.5,240Z" style="pointer-events: all; stroke-width: 1; fill: rgb(225, 237, 243); fill-opacity: 1; stroke: rgb(255, 255, 255); stroke-opacity: 1;"/><g class="slicetext"><text data-notex="1" class="slicetext" text-anchor="middle" x="0" y="0" style="font-family: 'Open Sans', verdana, arial, sans-serif; font-size: 12px; fill: rgb(68, 68, 68); fill-opacity: 1; white-space: pre;" transform="translate(318.74493851049647,165.34026714291193)rotate(-14.815083393763643)">neutral</text></g></g><g class="slice cursor-pointer"><path class="surface" d="M286.3459153730407,269.66397574034823L234.1918307460814,299.3279514806964A120,120 0,0,0 421.93981418432156,326.2426658266422L380.2199070921608,283.1213329133211A60,60 0,0,1 286.3459153730407,269.66397574034823Z" style="pointer-events: all; stroke-width: 1; fill: rgb(229, 130, 103); fill-opacity: 1; stroke: rgb(255, 255, 255); stroke-opacity: 1;"/><g class="slicetext"><text data-notex="1" class="slicetext" text-anchor="middle" x="0" y="0" style="font-family: 'Open Sans', verdana, arial, sans-serif; font-size: 12px; fill: rgb(68, 68, 68); fill-opacity: 1; white-space: pre;" transform="translate(325.7285653062735,333.83922749616744)">positive</text></g></g><g class="slice cursor-pointer"><path class="surface" d="M380.2199070921608,283.1213329133211L421.93981418432156,326.2426658266422A120,120 0,0,0 458.5,240.00000000000014L398.5,240.00000000000006A60,60 0,0,1 380.2199070921608,283.1213329133211Z" style="pointer-events: all; stroke-width: 1; fill: rgb(161, 19, 40); fill-opacity: 1; stroke: rgb(255, 255, 255); stroke-opacity: 1;"/><g class="slicetext"><text data-notex="1" class="slicetext" text-anchor="middle" x="0" y="0" style="font-family: 'Open Sans', verdana, arial, sans-serif; font-size: 12px; fill: rgb(255, 255, 255); fill-opacity: 1; white-space: pre;" transform="translate(421.36189551730547,279.87700202521063)">negative</text></g></g><g class="slice"><path class="surface" d="M458.5,240L518.5,240A180,180 0,1,0 160.23529913201997,264.9338409485903L219.65686608801332,256.6225606323935A120,120 0,1,1 458.5,240Z" style="pointer-events: all; stroke-width: 1; fill: rgb(247, 245, 244); fill-opacity: 1; stroke: rgb(255, 255, 255); stroke-opacity: 1; opacity: 1;"/><g class="slicetext"><text data-notex="1" class="slicetext" text-anchor="middle" x="0" y="0" style="font-family: 'Open Sans', verdana, arial, sans-serif; font-size: 12px; fill: rgb(68, 68, 68); fill-opacity: 1; white-space: pre;" transform="translate(329.00811121213735,103.61472729904364)rotate(-3.9811457577955025)">objective</text></g></g><g class="slice"><path class="surface" d="M219.65686608801332,256.6225606323935L160.23529913201997,264.9338409485903A180,180 0,0,0 182.0377461191221,328.99192722104465L234.1918307460814,299.3279514806964A120,120 0,0,1 219.65686608801332,256.6225606323935Z" style="pointer-events: all; stroke-width: 1; fill: rgb(108, 1, 32); fill-opacity: 1; stroke: rgb(255, 255, 255); stroke-opacity: 1; opacity: 1;"/><g class="slicetext"><text data-notex="1" class="slicetext" text-anchor="middle" x="0" y="0" style="font-family: 'Open Sans', verdana, arial, sans-serif; font-size: 12px; fill: rgb(255, 255, 255); fill-opacity: 1; white-space: pre;" transform="translate(173.19929573647437,296.2608103262352)scale(0.9839334568284497)rotate(71.20377084844085)">subjective</text></g></g><g class="slice"><path class="surface" d="M234.1918307460814,299.3279514806964L182.0377461191221,328.99192722104465A180,180 0,0,0 321.9157143174463,419.2343757999548L327.4438095449642,359.48958386663656A120,120 0,0,1 234.1918307460814,299.3279514806964Z" style="pointer-events: all; stroke-width: 1; fill: rgb(180, 27, 44); fill-opacity: 1; stroke: rgb(255, 255, 255); stroke-opacity: 1; opacity: 1;"/><g class="slicetext"><text data-notex="1" class="slicetext" text-anchor="middle" x="0" y="0" style="font-family: 'Open Sans', verdana, arial, sans-serif; font-size: 12px; fill: rgb(255, 255, 255); fill-opacity: 1; white-space: pre;" transform="translate(257.1818614983457,370.7950726947538)">objective</text></g></g><g class="slice"><path class="surface" d="M327.4438095449642,359.48958386663656L321.9157143174463,419.2343757999548A180,180 0,0,0 463.6597212764824,369.36399873996334L421.93981418432156,326.2426658266422A120,120 0,0,1 327.4438095449642,359.48958386663656Z" style="pointer-events: all; stroke-width: 1; fill: rgb(169, 21, 41); fill-opacity: 1; stroke: rgb(255, 255, 255); stroke-opacity: 1; opacity: 1;"/><g class="slicetext"><text data-notex="1" class="slicetext" text-anchor="middle" x="0" y="0" style="font-family: 'Open Sans', verdana, arial, sans-serif; font-size: 12px; fill: rgb(255, 255, 255); fill-opacity: 1; white-space: pre;" transform="translate(391.11122891307764,389.5341891682097)rotate(-19.383611312545327)">subjective</text></g></g><g class="slice"><path class="surface" d="M421.93981418432156,326.2426658266422L463.6597212764824,369.36399873996334A180,180 0,0,0 508.0920342468589,300.3203275854189L451.56135616457254,280.21355172361257A120,120 0,0,1 421.93981418432156,326.2426658266422Z" style="pointer-events: all; stroke-width: 1; fill: rgb(118, 5, 33); fill-opacity: 1; stroke: rgb(255, 255, 255); stroke-opacity: 1; opacity: 1;"/><g class="slicetext"><text data-notex="1" class="slicetext" text-anchor="middle" x="0" y="0" style="font-family: 'Open Sans', verdana, arial, sans-serif; font-size: 12px; fill: rgb(255, 255, 255); fill-opacity: 1; white-space: pre;" transform="translate(483.2404985197366,333.14619315826974)rotate(-57.2371283538796)">subjective</text></g></g><g class="slice"><path class="surface" d="M451.56135616457254,280.21355172361257L508.0920342468589,300.3203275854189A180,180 0,0,0 518.5,240.0000000000002L458.5,240.00000000000014A120,120 0,0,1 451.56135616457254,280.21355172361257Z" style="pointer-events: all; stroke-width: 1; fill: rgb(103, 0, 31); fill-opacity: 1; stroke: rgb(255, 255, 255); stroke-opacity: 1; opacity: 1;"/><g class="slicetext"><text data-notex="1" class="slicetext" text-anchor="middle" x="0" y="0" style="font-family: 'Open Sans', verdana, arial, sans-serif; font-size: 12px; fill: rgb(255, 255, 255); fill-opacity: 1; white-space: pre;" transform="translate(485.4216598748623,270.1707745273862)rotate(9.78970268310377)">objective</text></g></g></g></g><g class="glimages"/><defs id="topdefs-edaadf"><g class="clips"/></defs><g class="layer-above"><g class="imagelayer"/><g class="shapelayer"/></g><g class="infolayer"><g class="cbcoloraxis colorbar" transform="translate(80,60)"><rect class="cbbg" x="527" y="0" width="80.515625" height="360" style="fill: rgb(0, 0, 0); fill-opacity: 0; stroke: rgb(68, 68, 68); stroke-opacity: 1; stroke-width: 0;"/><g class="cbfills" transform="translate(0,30)"><rect class="cbfill" x="537" width="30" y="0" height="321" style="stroke: none; fill: url('#gedaadf-cbcoloraxis');"/></g><g class="cblines" transform="translate(0,30)"/><g class="cbaxis crisp" transform="translate(0,-60)"><g class="ycbcoloraxistick"><text text-anchor="start" x="569.9" y="4.199999999999999" transform="translate(0,379.28)" style="font-family: 'Open Sans', verdana, arial, sans-serif; font-size: 12px; fill: rgb(42, 63, 95); fill-opacity: 1; white-space: pre;">200</text></g><g class="ycbcoloraxistick"><text text-anchor="start" x="569.9" y="4.199999999999999" transform="translate(0,330.12)" style="font-family: 'Open Sans', verdana, arial, sans-serif; font-size: 12px; fill: rgb(42, 63, 95); fill-opacity: 1; white-space: pre;">400</text></g><g class="ycbcoloraxistick"><text text-anchor="start" x="569.9" y="4.199999999999999" transform="translate(0,280.96000000000004)" style="font-family: 'Open Sans', verdana, arial, sans-serif; font-size: 12px; fill: rgb(42, 63, 95); fill-opacity: 1; white-space: pre;">600</text></g><g class="ycbcoloraxistick"><text text-anchor="start" x="569.9" y="4.199999999999999" transform="translate(0,231.81)" style="font-family: 'Open Sans', verdana, arial, sans-serif; font-size: 12px; fill: rgb(42, 63, 95); fill-opacity: 1; white-space: pre;">800</text></g><g class="ycbcoloraxistick"><text text-anchor="start" x="569.9" y="4.199999999999999" transform="translate(0,182.65000000000003)" style="font-family: 'Open Sans', verdana, arial, sans-serif; font-size: 12px; fill: rgb(42, 63, 95); fill-opacity: 1; white-space: pre;">1000</text></g><g class="ycbcoloraxistick"><text text-anchor="start" x="569.9" y="4.199999999999999" transform="translate(0,133.5)" style="font-family: 'Open Sans', verdana, arial, sans-serif; font-size: 12px; fill: rgb(42, 63, 95); fill-opacity: 1; white-space: pre;">1200</text></g></g><g class="cbtitleunshift" transform="translate(-80,-60)"><g class="cbtitle" transform="translate(0,0)"><text class="ycbcoloraxistitle" x="617.34" y="82" text-anchor="start" style="font-family: 'Open Sans', verdana, arial, sans-serif; font-size: 12px; fill: rgb(42, 63, 95); opacity: 1; font-weight: normal; white-space: pre;">size</text></g></g><rect class="cboutline" x="537" y="29.5" width="30" height="320.5" style="stroke: rgb(68, 68, 68); stroke-opacity: 1; fill: none; stroke-width: 0;"/></g><g class="g-gtitle"/></g></svg>