<svg class="main-svg" xmlns="http://www.w3.org/2000/svg" xmlns:xlink="http://www.w3.org/1999/xlink" width="700" height="500" viewBox="0 0 700 500"><rect x="0" y="0" width="700" height="500" style="fill: rgb(255, 255, 255); fill-opacity: 1;"/><defs id="defs-07ac16"><g class="clips"/><g class="gradients"><linearGradient x1="0" x2="0" y1="1" y2="0" id="g07ac16-cbcoloraxis"><stop offset="0%" stop-color="rgb(103, 0, 31)" stop-opacity="1"/><stop offset="10%" stop-color="rgb(178, 24, 43)" stop-opacity="1"/><stop offset="20%" stop-color="rgb(214, 96, 77)" stop-opacity="1"/><stop offset="30%" stop-color="rgb(244, 165, 130)" stop-opacity="1"/><stop offset="40%" stop-color="rgb(253, 219, 199)" stop-opacity="1"/><stop offset="50%" stop-color="rgb(247, 247, 247)" stop-opacity="1"/><stop offset="60%" stop-color="rgb(209, 229, 240)" stop-opacity="1"/><stop offset="70%" stop-color="rgb(146, 197, 222)" stop-opacity="1"/><stop offset="80%" stop-color="rgb(67, 147, 195)" stop-opacity="1"/><stop offset="90%" stop-color="rgb(33, 102, 172)" stop-opacity="1"/><stop offset="100%" stop-color="rgb(5, 48, 97)" stop-opacity="1"/></linearGradient></g></defs><g class="bglayer"/><g class="layer-below"><g class="imagelayer"/><g class="shapelayer"/></g><g class="cartesianlayer"/><g class="polarlayer"/><g class="ternarylayer"/><g class="geolayer"/><g class="funnelarealayer"/><g class="pielayer"/><g class="treemaplayer"/><g class="sunburstlayer"><g class="trace sunburst" stroke-linejoin="round" style="opacity: 1;"><g class="slice"><path class="surface" d="M342.5,240A0,0 0,1,0 342.5,240A0,0 0,1,0 342.5,240ZM402.5,240A60,60 0,1,1 282.5,240A60,60 0,1,1 402.5,240.00000000000003Z" style="pointer-events: all; stroke-width: 1; fill: rgb(5, 48, 97); fill-opacity: 1; stroke: rgb(255, 255, 255); stroke-opacity: 1;"/><g class="slicetext"><text data-notex="1" class="slicetext" text-anchor="middle" x="0" y="0" style="font-family: 'Open Sans', verdana, arial, sans-serif; font-size: 12px; fill: rgb(255, 255, 255); fill-opacity: 1; white-space: pre;" transform="translate(342.5,244.75)">great_ald</text></g></g><g class="slice cursor-pointer"><path class="surface" d="M402.5,240L462.5,240A120,120 0,0,0 222.5,239.99999999999997L282.5,240A60,60 0,0,1 402.5,240Z" style="pointer-events: all; stroke-width: 1; fill: rgb(248, 241, 237); fill-opacity: 1; stroke: rgb(255, 255, 255); stroke-opacity: 1;"/><g class="slicetext"><text data-notex="1" class="slicetext" text-anchor="middle" x="0" y="0" style="font-family: 'Open Sans', verdana, arial, sans-serif; font-size: 12px; fill: rgb(68, 68, 68); fill-opacity: 1; white-space: pre;" transform="translate(342.4921875,154.75)">neutral</text></g></g><g class="slice cursor-pointer"><path class="surface" d="M282.5,240L222.5,239.99999999999997A120,120 0,0,0 388.0496445384676,351.0190518893908L365.27482226923377,295.5095259446954A60,60 0,0,1 282.5,240Z" style="pointer-events: all; stroke-width: 1; fill: rgb(239, 154, 122); fill-opacity: 1; stroke: rgb(255, 255, 255); stroke-opacity: 1;"/><g class="slicetext"><text data-notex="1" class="slicetext" text-anchor="middle" x="0" y="0" style="font-family: 'Open Sans', verdana, arial, sans-serif; font-size: 12px; fill: rgb(68, 68, 68); fill-opacity: 1; white-space: pre;" transform="translate(292.37316590062045,319.49824749232107)">positive</text></g></g><g class="slice cursor-pointer"><path class="surface" d="M365.27482226923377,295.5095259446954L388.0496445384676,351.0190518893908A120,120 0,0,0 462.5,240.00000000000003L402.5,240.00000000000003A60,60 0,0,1 365.27482226923377,295.5095259446954Z" style="pointer-events: all; stroke-width: 1; fill: rgb(198, 64, 62); fill-opacity: 1; stroke: rgb(255, 255, 255); stroke-opacity: 1;"/><g class="slicetext"><text data-notex="1" class="slicetext" text-anchor="middle" x="0" y="0" style="font-family: 'Open Sans', verdana, arial, sans-serif; font-size: 12px; fill: rgb(255, 255, 255); fill-opacity: 1; white-space: pre;" transform="translate(417.248247492321,294.8768340993796)">negative</text></g></g><g class="slice"><path class="surface" d="M462.5,240L522.5,240A180,180 0,0,0 167.73047286331064,196.92318042823962L225.98698190887376,211.28212028549308A120,120 0,0,1 462.5,240Z" style="pointer-events: all; stroke-width: 1; fill: rgb(251, 230, 218); fill-opacity: 1; stroke: rgb(255, 255, 255); stroke-opacity: 1; opacity: 1;"/><g class="slicetext"><text data-notex="1" class="slicetext" text-anchor="middle" x="0" y="0" style="font-family: 'Open Sans', verdana, arial, sans-serif; font-size: 12px; fill: rgb(68, 68, 68); fill-opacity: 1; white-space: pre;" transform="translate(360.58050203829845,95.84366888529192)">objective</text></g></g><g class="slice"><path class="surface" d="M225.98698190887376,211.28212028549308L167.73047286331064,196.92318042823962A180,180 0,0,0 162.5,239.99999999999997L222.5,239.99999999999997A120,120 0,0,1 225.98698190887376,211.28212028549308Z" style="pointer-events: all; stroke-width: 1; fill: rgb(103, 0, 31); fill-opacity: 1; stroke: rgb(255, 255, 255); stroke-opacity: 1; opacity: 1;"/><g class="slicetext"><text data-notex="1" class="slicetext" text-anchor="middle" x="0" y="0" style="font-family: 'Open Sans', verdana, arial, sans-serif; font-size: 12px; fill: rgb(255, 255, 255); fill-opacity: 1; white-space: pre;" transform="translate(193.12114349715714,226.3917881581273)scale(0.9466608015064624)rotate(6.923076923076906)">subjective</text></g></g><g class="slice"><path class="surface" d="M222.5,239.99999999999997L162.5,239.99999999999997A180,180 0,0,0 269.72920421162513,404.63417409616585L293.9861361410834,349.75611606411053A120,120 0,0,1 222.5,239.99999999999997Z" style="pointer-events: all; stroke-width: 1; fill: rgb(196, 61, 60); fill-opacity: 1; stroke: rgb(255, 255, 255); stroke-opacity: 1; opacity: 1;"/><g class="slicetext"><text data-notex="1" class="slicetext" text-anchor="middle" x="0" y="0" style="font-family: 'Open Sans', verdana, arial, sans-serif; font-size: 12px; fill: rgb(255, 255, 255); fill-opacity: 1; white-space: pre;" transform="translate(218.57428489281642,320.71505132669375)rotate(56.923076923076906)">subjective</text></g></g><g class="slice"><path class="surface" d="M293.9861361410834,349.75611606411053L269.72920421162513,404.63417409616585A180,180 0,0,0 410.82446680770136,406.52857783408626L388.0496445384676,351.0190518893908A120,120 0,0,1 293.9861361410834,349.75611606411053Z" style="pointer-events: all; stroke-width: 1; fill: rgb(173, 22, 42); fill-opacity: 1; stroke: rgb(255, 255, 255); stroke-opacity: 1; opacity: 1;"/><g class="slicetext"><text data-notex="1" class="slicetext" text-anchor="middle" x="0" y="0" style="font-family: 'Open Sans', verdana, arial, sans-serif; font-size: 12px; fill: rgb(255, 255, 255); fill-opacity: 1; white-space: pre;" transform="translate(340.4862190529904,394.73648167850814)">objective</text></g></g><g class="slice"><path class="surface" d="M388.0496445384676,351.0190518893908L410.82446680770136,406.52857783408626A180,180 0,0,0 506.1423739644902,314.9744852817672L451.59491597632683,289.9829901878448A120,120 0,0,1 388.0496445384676,351.0190518893908Z" style="pointer-events: all; stroke-width: 1; fill: rgb(166, 20, 41); fill-opacity: 1; stroke: rgb(255, 255, 255); stroke-opacity: 1; opacity: 1;"/><g class="slicetext"><text data-notex="1" class="slicetext" text-anchor="middle" x="0" y="0" style="font-family: 'Open Sans', verdana, arial, sans-serif; font-size: 12px; fill: rgb(255, 255, 255); fill-opacity: 1; white-space: pre;" transform="translate(454.9699807925008,357.0936534702606)rotate(-43.84615384615381)">subjective</text></g></g><g class="slice"><path class="surface" d="M451.59491597632683,289.9829901878448L506.1423739644902,314.9744852817672A180,180 0,0,0 522.5,240.00000000000006L462.5,240.00000000000003A120,120 0,0,1 451.59491597632683,289.9829901878448Z" style="pointer-events: all; stroke-width: 1; fill: rgb(126, 7, 35); fill-opacity: 1; stroke: rgb(255, 255, 255); stroke-opacity: 1; opacity: 1;"/><g class="slicetext"><text data-notex="1" class="slicetext" text-anchor="middle" x="0" y="0" style="font-family: 'Open Sans', verdana, arial, sans-serif; font-size: 12px; fill: rgb(255, 255, 255); fill-opacity: 1; white-space: pre;" transform="translate(489.05254475027255,276.72423380191236)">objective</text></g></g></g></g><g class="glimages"/><defs id="topdefs-07ac16"><g class="clips"/></defs><g class="layer-above"><g class="imagelayer"/><g class="shapelayer"/></g><g class="infolayer"><g class="cbcoloraxis colorbar" transform="translate(80,60)"><rect class="cbbg" x="536" y="0" width="72.875" height="360" style="fill: rgb(0, 0, 0); fill-opacity: 0; stroke: rgb(68, 68, 68); stroke-opacity: 1; stroke-width: 0;"/><g class="cbfills" transform="translate(0,30)"><rect class="cbfill" x="546" width="30" y="0" height="321" style="stroke: none; fill: url('#g07ac16-cbcoloraxis');"/></g><g class="cblines" transform="translate(0,30)"/><g class="cbaxis crisp" transform="translate(0,-60)"><g class="ycbcoloraxistick"><text text-anchor="start" x="578.9" y="4.199999999999999" transform="translate(0,351.6)" style="font-family: 'Open Sans', verdana, arial, sans-serif; font-size: 12px; fill: rgb(42, 63, 95); fill-opacity: 1; white-space: pre;">50</text></g><g class="ycbcoloraxistick"><text text-anchor="start" x="578.9" y="4.199999999999999" transform="translate(0,280.38)" style="font-family: 'Open Sans', verdana, arial, sans-serif; font-size: 12px; fill: rgb(42, 63, 95); fill-opacity: 1; white-space: pre;">100</text></g><g class="ycbcoloraxistick"><text text-anchor="start" x="578.9" y="4.199999999999999" transform="translate(0,209.15000000000003)" style="font-family: 'Open Sans', verdana, arial, sans-serif; font-size: 12px; fill: rgb(42, 63, 95); fill-opacity: 1; white-space: pre;">150</text></g><g class="ycbcoloraxistick"><text text-anchor="start" x="578.9" y="4.199999999999999" transform="translate(0,137.93)" style="font-family: 'Open Sans', verdana, arial, sans-serif; font-size: 12px; fill: rgb(42, 63, 95); fill-opacity: 1; white-space: pre;">200</text></g></g><g class="cbtitleunshift" transform="translate(-80,-60)"><g class="cbtitle" transform="translate(0,0)"><text class="ycbcoloraxistitle" x="625.5" y="82" text-anchor="start" style="font-family: 'Open Sans', verdana, arial, sans-serif; font-size: 12px; fill: rgb(42, 63, 95); opacity: 1; font-weight: normal; white-space: pre;">size</text></g></g><rect class="cboutline" x="546" y="29.5" width="30" height="320.5" style="stroke: rgb(68, 68, 68); stroke-opacity: 1; fill: none; stroke-width: 0;"/></g><g class="g-gtitle"/></g></svg>