<svg class="main-svg" xmlns="http://www.w3.org/2000/svg" xmlns:xlink="http://www.w3.org/1999/xlink" width="700" height="500" viewBox="0 0 700 500"><rect x="0" y="0" width="700" height="500" style="fill: rgb(255, 255, 255); fill-opacity: 1;"/><defs id="defs-007ef8"><g class="clips"/><g class="gradients"><linearGradient x1="0" x2="0" y1="1" y2="0" id="g007ef8-cbcoloraxis"><stop offset="0%" stop-color="rgb(103, 0, 31)" stop-opacity="1"/><stop offset="10%" stop-color="rgb(178, 24, 43)" stop-opacity="1"/><stop offset="20%" stop-color="rgb(214, 96, 77)" stop-opacity="1"/><stop offset="30%" stop-color="rgb(244, 165, 130)" stop-opacity="1"/><stop offset="40%" stop-color="rgb(253, 219, 199)" stop-opacity="1"/><stop offset="50%" stop-color="rgb(247, 247, 247)" stop-opacity="1"/><stop offset="60%" stop-color="rgb(209, 229, 240)" stop-opacity="1"/><stop offset="70%" stop-color="rgb(146, 197, 222)" stop-opacity="1"/><stop offset="80%" stop-color="rgb(67, 147, 195)" stop-opacity="1"/><stop offset="90%" stop-color="rgb(33, 102, 172)" stop-opacity="1"/><stop offset="100%" stop-color="rgb(5, 48, 97)" stop-opacity="1"/></linearGradient></g></defs><g class="bglayer"/><g class="layer-below"><g class="imagelayer"/><g class="shapelayer"/></g><g class="cartesianlayer"/><g class="polarlayer"/><g class="ternarylayer"/><g class="geolayer"/><g class="funnelarealayer"/><g class="pielayer"/><g class="treemaplayer"/><g class="sunburstlayer"><g class="trace sunburst" stroke-linejoin="round" style="opacity: 1;"><g class="slice"><path class="surface" d="M342.5,240A0,0 0,1,0 342.5,240A0,0 0,1,0 342.5,240ZM402.5,240A60,60 0,1,1 282.5,240A60,60 0,1,1 402.5,240.00000000000003Z" style="pointer-events: all; stroke-width: 1; fill: rgb(5, 48, 97); fill-opacity: 1; stroke: rgb(255, 255, 255); stroke-opacity: 1;"/><g class="slicetext"><text data-notex="1" class="slicetext" text-anchor="middle" x="0" y="0" style="font-family: 'Open Sans', verdana, arial, sans-serif; font-size: 12px; fill: rgb(255, 255, 255); fill-opacity: 1; white-space: pre;" transform="translate(342.5,244.75)">great_brisbane</text></g></g><g class="slice cursor-pointer"><path class="surface" d="M402.5,240L462.5,240A120,120 0,1,0 227.2976269599116,273.5918627934253L284.8988134799558,256.79593139671266A60,60 0,1,1 402.5,240Z" style="pointer-events: all; stroke-width: 1; fill: rgb(242, 244, 246); fill-opacity: 1; stroke: rgb(255, 255, 255); stroke-opacity: 1;"/><g class="slicetext"><text data-notex="1" class="slicetext" text-anchor="middle" x="0" y="0" style="font-family: 'Open Sans', verdana, arial, sans-serif; font-size: 12px; fill: rgb(68, 68, 68); fill-opacity: 1; white-space: pre;" transform="translate(331.57311818025755,163.54778343015025)rotate(-8.128078817734036)">neutral</text></g></g><g class="slice cursor-pointer"><path class="surface" d="M284.8988134799558,256.79593139671266L227.2976269599116,273.5918627934253A120,120 0,0,0 403.03529762103386,343.6121505516262L372.76764881051696,291.8060752758131A60,60 0,0,1 284.8988134799558,256.79593139671266Z" style="pointer-events: all; stroke-width: 1; fill: rgb(226, 124, 98); fill-opacity: 1; stroke: rgb(255, 255, 255); stroke-opacity: 1;"/><g class="slicetext"><text data-notex="1" class="slicetext" text-anchor="middle" x="0" y="0" style="font-family: 'Open Sans', verdana, arial, sans-serif; font-size: 12px; fill: rgb(68, 68, 68); fill-opacity: 1; white-space: pre;" transform="translate(309.1875660194077,328.35790478351123)">positive</text></g></g><g class="slice cursor-pointer"><path class="surface" d="M372.76764881051696,291.8060752758131L403.03529762103386,343.6121505516262A120,120 0,0,0 462.5,240.00000000000003L402.5,240.00000000000003A60,60 0,0,1 372.76764881051696,291.8060752758131Z" style="pointer-events: all; stroke-width: 1; fill: rgb(181, 30, 46); fill-opacity: 1; stroke: rgb(255, 255, 255); stroke-opacity: 1;"/><g class="slicetext"><text data-notex="1" class="slicetext" text-anchor="middle" x="0" y="0" style="font-family: 'Open Sans', verdana, arial, sans-serif; font-size: 12px; fill: rgb(255, 255, 255); fill-opacity: 1; white-space: pre;" transform="translate(420.55809563850437,289.54881365940514)">negative</text></g></g><g class="slice"><path class="surface" d="M462.5,240L522.5,240A180,180 0,0,0 168.2198706915386,194.98404140500864L226.31324712769242,209.98936093667243A120,120 0,0,1 462.5,240Z" style="pointer-events: all; stroke-width: 1; fill: rgb(252, 225, 210); fill-opacity: 1; stroke: rgb(255, 255, 255); stroke-opacity: 1; opacity: 1;"/><g class="slicetext"><text data-notex="1" class="slicetext" text-anchor="middle" x="0" y="0" style="font-family: 'Open Sans', verdana, arial, sans-serif; font-size: 12px; fill: rgb(68, 68, 68); fill-opacity: 1; white-space: pre;" transform="translate(361.4074566830434,95.94641105880936)">objective</text></g></g><g class="slice"><path class="surface" d="M226.31324712769242,209.98936093667243L168.2198706915386,194.98404140500864A180,180 0,0,0 169.6964404398674,290.38779419013804L227.2976269599116,273.5918627934253A120,120 0,0,1 226.31324712769242,209.98936093667243Z" style="pointer-events: all; stroke-width: 1; fill: rgb(120, 5, 34); fill-opacity: 1; stroke: rgb(255, 255, 255); stroke-opacity: 1; opacity: 1;"/><g class="slicetext"><text data-notex="1" class="slicetext" text-anchor="middle" x="0" y="0" style="font-family: 'Open Sans', verdana, arial, sans-serif; font-size: 12px; fill: rgb(255, 255, 255); fill-opacity: 1; white-space: pre;" transform="translate(172.86808846335163,242.6254035256907)rotate(89.11330049261085)">subjective</text></g></g><g class="slice"><path class="surface" d="M227.2976269599116,273.5918627934253L169.6964404398674,290.38779419013804A180,180 0,0,0 277.6038491775789,407.89428104743047L299.23589945171926,351.929520698287A120,120 0,0,1 227.2976269599116,273.5918627934253Z" style="pointer-events: all; stroke-width: 1; fill: rgb(169, 21, 42); fill-opacity: 1; stroke: rgb(255, 255, 255); stroke-opacity: 1; opacity: 1;"/><g class="slicetext"><text data-notex="1" class="slicetext" text-anchor="middle" x="0" y="0" style="font-family: 'Open Sans', verdana, arial, sans-serif; font-size: 12px; fill: rgb(255, 255, 255); fill-opacity: 1; white-space: pre;" transform="translate(232.0173728702951,346.207326509812)">objective</text></g></g><g class="slice"><path class="surface" d="M299.23589945171926,351.929520698287L277.6038491775789,407.89428104743047A180,180 0,0,0 433.3029464315508,395.4182258274393L403.03529762103386,343.6121505516262A120,120 0,0,1 299.23589945171926,351.929520698287Z" style="pointer-events: all; stroke-width: 1; fill: rgb(166, 20, 41); fill-opacity: 1; stroke: rgb(255, 255, 255); stroke-opacity: 1; opacity: 1;"/><g class="slicetext"><text data-notex="1" class="slicetext" text-anchor="middle" x="0" y="0" style="font-family: 'Open Sans', verdana, arial, sans-serif; font-size: 12px; fill: rgb(255, 255, 255); fill-opacity: 1; white-space: pre;" transform="translate(355.0579186117381,396.72073878796573)rotate(-4.58128078817731)">subjective</text></g></g><g class="slice"><path class="surface" d="M403.03529762103386,343.6121505516262L433.3029464315508,395.4182258274393A180,180 0,0,0 508.12428377561776,310.4882729524114L452.91618918374513,286.9921819682743A120,120 0,0,1 403.03529762103386,343.6121505516262Z" style="pointer-events: all; stroke-width: 1; fill: rgb(133, 10, 36); fill-opacity: 1; stroke: rgb(255, 255, 255); stroke-opacity: 1; opacity: 1;"/><g class="slicetext"><text data-notex="1" class="slicetext" text-anchor="middle" x="0" y="0" style="font-family: 'Open Sans', verdana, arial, sans-serif; font-size: 12px; fill: rgb(255, 255, 255); fill-opacity: 1; white-space: pre;" transform="translate(467.2154940163083,349.871485076143)rotate(-48.62068965517233)">subjective</text></g></g><g class="slice"><path class="surface" d="M452.91618918374513,286.9921819682743L508.12428377561776,310.4882729524114A180,180 0,0,0 522.5,240.00000000000006L462.5,240.00000000000003A120,120 0,0,1 452.91618918374513,286.9921819682743Z" style="pointer-events: all; stroke-width: 1; fill: rgb(103, 0, 31); fill-opacity: 1; stroke: rgb(255, 255, 255); stroke-opacity: 1; opacity: 1;"/><g class="slicetext"><text data-notex="1" class="slicetext" text-anchor="middle" x="0" y="0" style="font-family: 'Open Sans', verdana, arial, sans-serif; font-size: 12px; fill: rgb(255, 255, 255); fill-opacity: 1; white-space: pre;" transform="translate(489.4952140357422,274.728908473851)">objective</text></g></g></g></g><g class="glimages"/><defs id="topdefs-007ef8"><g class="clips"/></defs><g class="layer-above"><g class="imagelayer"/><g class="shapelayer"/></g><g class="infolayer"><g class="cbcoloraxis colorbar" transform="translate(80,60)"><rect class="cbbg" x="536" y="0" width="72.875" height="360" style="fill: rgb(0, 0, 0); fill-opacity: 0; stroke: rgb(68, 68, 68); stroke-opacity: 1; stroke-width: 0;"/><g class="cbfills" transform="translate(0,30)"><rect class="cbfill" x="546" width="30" y="0" height="321" style="stroke: none; fill: url('#g007ef8-cbcoloraxis');"/></g><g class="cblines" transform="translate(0,30)"/><g class="cbaxis crisp" transform="translate(0,-60)"><g class="ycbcoloraxistick"><text text-anchor="start" x="578.9" y="4.199999999999999" transform="translate(0,375.7)" style="font-family: 'Open Sans', verdana, arial, sans-serif; font-size: 12px; fill: rgb(42, 63, 95); fill-opacity: 1; white-space: pre;">100</text></g><g class="ycbcoloraxistick"><text text-anchor="start" x="578.9" y="4.199999999999999" transform="translate(0,319.47)" style="font-family: 'Open Sans', verdana, arial, sans-serif; font-size: 12px; fill: rgb(42, 63, 95); fill-opacity: 1; white-space: pre;">200</text></g><g class="ycbcoloraxistick"><text text-anchor="start" x="578.9" y="4.199999999999999" transform="translate(0,263.24)" style="font-family: 'Open Sans', verdana, arial, sans-serif; font-size: 12px; fill: rgb(42, 63, 95); fill-opacity: 1; white-space: pre;">300</text></g><g class="ycbcoloraxistick"><text text-anchor="start" x="578.9" y="4.199999999999999" transform="translate(0,207.02)" style="font-family: 'Open Sans', verdana, arial, sans-serif; font-size: 12px; fill: rgb(42, 63, 95); fill-opacity: 1; white-space: pre;">400</text></g><g class="ycbcoloraxistick"><text text-anchor="start" x="578.9" y="4.199999999999999" transform="translate(0,150.79000000000002)" style="font-family: 'Open Sans', verdana, arial, sans-serif; font-size: 12px; fill: rgb(42, 63, 95); fill-opacity: 1; white-space: pre;">500</text></g><g class="ycbcoloraxistick"><text text-anchor="start" x="578.9" y="4.199999999999999" transform="translate(0,94.56000000000002)" style="font-family: 'Open Sans', verdana, arial, sans-serif; font-size: 12px; fill: rgb(42, 63, 95); fill-opacity: 1; white-space: pre;">600</text></g></g><g class="cbtitleunshift" transform="translate(-80,-60)"><g class="cbtitle" transform="translate(0,0)"><text class="ycbcoloraxistitle" x="625.5" y="82" text-anchor="start" style="font-family: 'Open Sans', verdana, arial, sans-serif; font-size: 12px; fill: rgb(42, 63, 95); opacity: 1; font-weight: normal; white-space: pre;">size</text></g></g><rect class="cboutline" x="546" y="29.5" width="30" height="320.5" style="stroke: rgb(68, 68, 68); stroke-opacity: 1; fill: none; stroke-width: 0;"/></g><g class="g-gtitle"/></g></svg>