<svg class="main-svg" xmlns="http://www.w3.org/2000/svg" xmlns:xlink="http://www.w3.org/1999/xlink" width="700" height="500" viewBox="0 0 700 500"><rect x="0" y="0" width="700" height="500" style="fill: rgb(255, 255, 255); fill-opacity: 1;"/><defs id="defs-d96c14"><g class="clips"/><g class="gradients"><linearGradient x1="0" x2="0" y1="1" y2="0" id="gd96c14-cbcoloraxis"><stop offset="0%" stop-color="rgb(103, 0, 31)" stop-opacity="1"/><stop offset="10%" stop-color="rgb(178, 24, 43)" stop-opacity="1"/><stop offset="20%" stop-color="rgb(214, 96, 77)" stop-opacity="1"/><stop offset="30%" stop-color="rgb(244, 165, 130)" stop-opacity="1"/><stop offset="40%" stop-color="rgb(253, 219, 199)" stop-opacity="1"/><stop offset="50%" stop-color="rgb(247, 247, 247)" stop-opacity="1"/><stop offset="60%" stop-color="rgb(209, 229, 240)" stop-opacity="1"/><stop offset="70%" stop-color="rgb(146, 197, 222)" stop-opacity="1"/><stop offset="80%" stop-color="rgb(67, 147, 195)" stop-opacity="1"/><stop offset="90%" stop-color="rgb(33, 102, 172)" stop-opacity="1"/><stop offset="100%" stop-color="rgb(5, 48, 97)" stop-opacity="1"/></linearGradient></g></defs><g class="bglayer"/><g class="layer-below"><g class="imagelayer"/><g class="shapelayer"/></g><g class="cartesianlayer"/><g class="polarlayer"/><g class="ternarylayer"/><g class="geolayer"/><g class="funnelarealayer"/><g class="pielayer"/><g class="treemaplayer"/><g class="sunburstlayer"><g class="trace sunburst" stroke-linejoin="round" style="opacity: 1;"><g class="slice"><path class="surface" d="M339,240A0,0 0,1,0 339,240A0,0 0,1,0 339,240ZM399,240A60,60 0,1,1 279,240A60,60 0,1,1 399,240.00000000000003Z" style="pointer-events: all; stroke-width: 1; fill: rgb(5, 48, 97); fill-opacity: 1; stroke: rgb(255, 255, 255); stroke-opacity: 1;"/><g class="slicetext"><text data-notex="1" class="slicetext" text-anchor="middle" x="0" y="0" style="font-family: 'Open Sans', verdana, arial, sans-serif; font-size: 12px; fill: rgb(255, 255, 255); fill-opacity: 1; white-space: pre;" transform="translate(338.9921875,244.75)">Greater_Melbourne</text></g></g><g class="slice cursor-pointer"><path class="surface" d="M399,240L459,240A120,120 0,1,0 235.18430083896715,300.1855514862656L287.0921504194836,270.0927757431328A60,60 0,1,1 399,240Z" style="pointer-events: all; stroke-width: 1; fill: rgb(221, 235, 242); fill-opacity: 1; stroke: rgb(255, 255, 255); stroke-opacity: 1;"/><g class="slicetext"><text data-notex="1" class="slicetext" text-anchor="middle" x="0" y="0" style="font-family: 'Open Sans', verdana, arial, sans-serif; font-size: 12px; fill: rgb(68, 68, 68); fill-opacity: 1; white-space: pre;" transform="translate(318.9374642213022,165.42230344885746)rotate(-15.051176366182176)">neutral</text></g></g><g class="slice cursor-pointer"><path class="surface" d="M287.0921504194836,270.0927757431328L235.18430083896715,300.1855514862656A120,120 0,0,0 434.86357250643,312.1815451919979L386.931786253215,276.09077259599894A60,60 0,0,1 287.0921504194836,270.0927757431328Z" style="pointer-events: all; stroke-width: 1; fill: rgb(240, 156, 123); fill-opacity: 1; stroke: rgb(255, 255, 255); stroke-opacity: 1;"/><g class="slicetext"><text data-notex="1" class="slicetext" text-anchor="middle" x="0" y="0" style="font-family: 'Open Sans', verdana, arial, sans-serif; font-size: 12px; fill: rgb(68, 68, 68); fill-opacity: 1; white-space: pre;" transform="translate(333.602862955306,334.5880259785398)">positive</text></g></g><g class="slice cursor-pointer"><path class="surface" d="M386.931786253215,276.09077259599894L434.86357250643,312.1815451919979A120,120 0,0,0 459,240.00000000000014L399,240.00000000000006A60,60 0,0,1 386.931786253215,276.09077259599894Z" style="pointer-events: all; stroke-width: 1; fill: rgb(154, 16, 39); fill-opacity: 1; stroke: rgb(255, 255, 255); stroke-opacity: 1;"/><g class="slicetext"><text data-notex="1" class="slicetext" text-anchor="middle" x="0" y="0" style="font-family: 'Open Sans', verdana, arial, sans-serif; font-size: 12px; fill: rgb(255, 255, 255); fill-opacity: 1; white-space: pre;" transform="translate(425.4048692841757,273.64249401660226)">negative</text></g></g><g class="slice"><path class="surface" d="M459,240L519,240A180,180 0,1,0 164.97394895655873,285.9884067806831L222.98263263770582,270.6589378537887A120,120 0,1,1 459,240Z" style="pointer-events: all; stroke-width: 1; fill: rgb(238, 243, 245); fill-opacity: 1; stroke: rgb(255, 255, 255); stroke-opacity: 1; opacity: 1;"/><g class="slicetext"><text data-notex="1" class="slicetext" text-anchor="middle" x="0" y="0" style="font-family: 'Open Sans', verdana, arial, sans-serif; font-size: 12px; fill: rgb(68, 68, 68); fill-opacity: 1; white-space: pre;" transform="translate(321.3885051491537,104.42391873345063)rotate(-7.401344981955162)">objective</text></g></g><g class="slice"><path class="surface" d="M222.98263263770582,270.6589378537887L164.97394895655873,285.9884067806831A180,180 0,0,0 183.27645125845072,330.27832722939837L235.18430083896715,300.1855514862656A120,120 0,0,1 222.98263263770582,270.6589378537887Z" style="pointer-events: all; stroke-width: 1; fill: rgb(108, 1, 32); fill-opacity: 1; stroke: rgb(255, 255, 255); stroke-opacity: 1; opacity: 1;"/><g class="slicetext"><text data-notex="1" class="slicetext" text-anchor="middle" x="0" y="0" style="font-family: 'Open Sans', verdana, arial, sans-serif; font-size: 12px; fill: rgb(255, 255, 255); fill-opacity: 1; white-space: pre;" transform="translate(202.15258565121135,301.4167028232643)scale(0.9466608015064624)rotate(-22.45252134813734)">subjective</text></g></g><g class="slice"><path class="surface" d="M235.18430083896715,300.1855514862656L183.27645125845072,330.27832722939837A180,180 0,0,0 358.9489727829819,418.89113584776595L352.2993151886546,359.26075723184397A120,120 0,0,1 235.18430083896715,300.1855514862656Z" style="pointer-events: all; stroke-width: 1; fill: rgb(197, 62, 61); fill-opacity: 1; stroke: rgb(255, 255, 255); stroke-opacity: 1; opacity: 1;"/><g class="slicetext"><text data-notex="1" class="slicetext" text-anchor="middle" x="0" y="0" style="font-family: 'Open Sans', verdana, arial, sans-serif; font-size: 12px; fill: rgb(255, 255, 255); fill-opacity: 1; white-space: pre;" transform="translate(272.4244245920067,371.98429647161095)rotate(26.767310233301146)">subjective</text></g></g><g class="slice"><path class="surface" d="M352.2993151886546,359.26075723184397L358.9489727829819,418.89113584776595A180,180 0,0,0 482.79535875964496,348.2723177879969L434.86357250643,312.1815451919979A120,120 0,0,1 352.2993151886546,359.26075723184397Z" style="pointer-events: all; stroke-width: 1; fill: rgb(175, 23, 43); fill-opacity: 1; stroke: rgb(255, 255, 255); stroke-opacity: 1; opacity: 1;"/><g class="slicetext"><text data-notex="1" class="slicetext" text-anchor="middle" x="0" y="0" style="font-family: 'Open Sans', verdana, arial, sans-serif; font-size: 12px; fill: rgb(255, 255, 255); fill-opacity: 1; white-space: pre;" transform="translate(413.3014033352459,375.05464866002717)">objective</text></g></g><g class="slice"><path class="surface" d="M434.86357250643,312.1815451919979L482.79535875964496,348.2723177879969A180,180 0,0,0 514.2531453459286,281.065010000715L455.83543023061907,267.37667333381A120,120 0,0,1 434.86357250643,312.1815451919979Z" style="pointer-events: all; stroke-width: 1; fill: rgb(126, 7, 35); fill-opacity: 1; stroke: rgb(255, 255, 255); stroke-opacity: 1; opacity: 1;"/><g class="slicetext"><text data-notex="1" class="slicetext" text-anchor="middle" x="0" y="0" style="font-family: 'Open Sans', verdana, arial, sans-serif; font-size: 12px; fill: rgb(255, 255, 255); fill-opacity: 1; white-space: pre;" transform="translate(496.17585432463204,313.5694472022392)rotate(-64.91707259352745)">subjective</text></g></g><g class="slice"><path class="surface" d="M455.83543023061907,267.37667333381L514.2531453459286,281.065010000715A180,180 0,0,0 519,240.0000000000002L459,240.00000000000014A120,120 0,0,1 455.83543023061907,267.37667333381Z" style="pointer-events: all; stroke-width: 1; fill: rgb(103, 0, 31); fill-opacity: 1; stroke: rgb(255, 255, 255); stroke-opacity: 1; opacity: 1;"/><g class="slicetext"><text data-notex="1" class="slicetext" text-anchor="middle" x="0" y="0" style="font-family: 'Open Sans', verdana, arial, sans-serif; font-size: 12px; fill: rgb(255, 255, 255); fill-opacity: 1; white-space: pre;" transform="translate(487.3751980325385,261.93286084331174)rotate(6.593764174571618)">objective</text></g></g></g></g><g class="glimages"/><defs id="topdefs-d96c14"><g class="clips"/></defs><g class="layer-above"><g class="imagelayer"/><g class="shapelayer"/></g><g class="infolayer"><g class="cbcoloraxis colorbar" transform="translate(80,60)"><rect class="cbbg" x="528" y="0" width="79.984375" height="360" style="fill: rgb(0, 0, 0); fill-opacity: 0; stroke: rgb(68, 68, 68); stroke-opacity: 1; stroke-width: 0;"/><g class="cbfills" transform="translate(0,30)"><rect class="cbfill" x="538" width="30" y="0" height="321" style="stroke: none; fill: url('#gd96c14-cbcoloraxis');"/></g><g class="cblines" transform="translate(0,30)"/><g class="cbaxis crisp" transform="translate(0,-60)"><g class="ycbcoloraxistick"><text text-anchor="start" x="570.9" y="4.199999999999999" transform="translate(0,356.58)" style="font-family: 'Open Sans', verdana, arial, sans-serif; font-size: 12px; fill: rgb(42, 63, 95); fill-opacity: 1; white-space: pre;">20k</text></g><g class="ycbcoloraxistick"><text text-anchor="start" x="570.9" y="4.199999999999999" transform="translate(0,290.97)" style="font-family: 'Open Sans', verdana, arial, sans-serif; font-size: 12px; fill: rgb(42, 63, 95); fill-opacity: 1; white-space: pre;">40k</text></g><g class="ycbcoloraxistick"><text text-anchor="start" x="570.9" y="4.199999999999999" transform="translate(0,225.36)" style="font-family: 'Open Sans', verdana, arial, sans-serif; font-size: 12px; fill: rgb(42, 63, 95); fill-opacity: 1; white-space: pre;">60k</text></g><g class="ycbcoloraxistick"><text text-anchor="start" x="570.9" y="4.199999999999999" transform="translate(0,159.75)" style="font-family: 'Open Sans', verdana, arial, sans-serif; font-size: 12px; fill: rgb(42, 63, 95); fill-opacity: 1; white-space: pre;">80k</text></g><g class="ycbcoloraxistick"><text text-anchor="start" x="570.9" y="4.199999999999999" transform="translate(0,94.14000000000001)" style="font-family: 'Open Sans', verdana, arial, sans-serif; font-size: 12px; fill: rgb(42, 63, 95); fill-opacity: 1; white-space: pre;">100k</text></g></g><g class="cbtitleunshift" transform="translate(-80,-60)"><g class="cbtitle" transform="translate(0,0)"><text class="ycbcoloraxistitle" x="618.36" y="82" text-anchor="start" style="font-family: 'Open Sans', verdana, arial, sans-serif; font-size: 12px; fill: rgb(42, 63, 95); opacity: 1; font-weight: normal; white-space: pre;">size</text></g></g><rect class="cboutline" x="538" y="29.5" width="30" height="320.5" style="stroke: rgb(68, 68, 68); stroke-opacity: 1; fill: none; stroke-width: 0;"/></g><g class="g-gtitle"/></g></svg>